<?xml version="1.0" encoding="utf-8"?>
<!-- Generator: Adobe Illustrator 16.0.0, SVG Export Plug-In . SVG Version: 6.00 Build 0)  -->
<!DOCTYPE svg PUBLIC "-//W3C//DTD SVG 1.1//EN" "http://www.w3.org/Graphics/SVG/1.1/DTD/svg11.dtd">
<svg version="1.1" id="Capa_1" xmlns="http://www.w3.org/2000/svg" xmlns:xlink="http://www.w3.org/1999/xlink" x="0px" y="0px"
	 width="88px" height="88px" viewBox="0 0 88 88" enable-background="new 0 0 88 88" xml:space="preserve">
<g>
	<path fill="#FFFFFF" d="M30.249,81.325c0-0.072,0.057-0.134,0.133-0.134h0.834c0.069,0,0.131,0.063,0.131,0.134v3.74h1.668
		c0.077,0,0.132,0.063,0.132,0.133v0.763c0,0.069-0.055,0.133-0.132,0.133h-2.634c-0.076,0-0.133-0.064-0.133-0.133V81.325z"/>
	<path fill="#FFFFFF" d="M33.83,81.325c0-0.072,0.055-0.134,0.132-0.134h2.9c0.078,0,0.133,0.063,0.133,0.134v0.762
		c0,0.071-0.056,0.134-0.133,0.134h-1.94v0.868h1.597c0.07,0,0.134,0.063,0.134,0.133v0.764c0,0.076-0.064,0.133-0.134,0.133h-1.597
		v0.947h1.94c0.078,0,0.133,0.063,0.133,0.133v0.763c0,0.069-0.056,0.133-0.133,0.133h-2.9c-0.077,0-0.132-0.064-0.132-0.133V81.325
		z"/>
	<path fill="#FFFFFF" d="M38.565,82.221h-1c-0.078,0-0.134-0.064-0.134-0.134v-0.762c0-0.072,0.056-0.134,0.134-0.134h3.109
		c0.076,0,0.131,0.063,0.131,0.134v0.762c0,0.07-0.055,0.134-0.131,0.134h-1.002v3.74c0,0.069-0.064,0.133-0.134,0.133h-0.839
		c-0.07,0-0.133-0.064-0.133-0.133V82.221z"/>
	<path fill="#FFFFFF" d="M41.278,83.067c-0.049-0.054-0.035-0.116,0.006-0.153c0.076-0.057,0.491-0.364,0.499-0.84
		c0,0-0.12,0.049-0.282,0.049c-0.272,0-0.503-0.217-0.503-0.498c0-0.272,0.231-0.504,0.553-0.504c0.267,0,0.638,0.201,0.638,0.812
		c0,0.736-0.49,1.122-0.652,1.255c-0.048,0.034-0.097,0.049-0.153-0.015L41.278,83.067z"/>
	<path fill="#FFFFFF" d="M42.629,85.429l0.328-0.582c0.058-0.09,0.191-0.078,0.239-0.042c0.027,0.015,0.533,0.385,0.995,0.385
		c0.279,0,0.482-0.175,0.482-0.421c0-0.293-0.245-0.517-0.721-0.708c-0.603-0.237-1.359-0.708-1.359-1.546
		c0-0.693,0.541-1.394,1.619-1.394c0.729,0,1.289,0.371,1.498,0.524c0.085,0.05,0.072,0.176,0.043,0.225l-0.358,0.539
		c-0.048,0.078-0.175,0.14-0.236,0.091c-0.064-0.035-0.575-0.421-1.002-0.421c-0.253,0-0.442,0.169-0.442,0.357
		c0,0.26,0.21,0.455,0.764,0.68c0.546,0.216,1.415,0.644,1.415,1.598c0,0.72-0.623,1.449-1.653,1.449
		c-0.91,0-1.414-0.377-1.576-0.539C42.594,85.556,42.573,85.527,42.629,85.429"/>
	<path fill="#FFFFFF" d="M50.469,81.121c0.7,0,1.219,0.218,1.695,0.65c0.063,0.058,0.063,0.142,0.007,0.197l-0.545,0.567
		c-0.052,0.05-0.127,0.05-0.178,0c-0.257-0.231-0.601-0.356-0.945-0.356c-0.791,0-1.373,0.656-1.373,1.441
		c0,0.778,0.588,1.423,1.38,1.423c0.33,0,0.688-0.119,0.938-0.337c0.051-0.042,0.141-0.042,0.184,0.009l0.545,0.581
		c0.049,0.048,0.042,0.139-0.007,0.188c-0.477,0.462-1.079,0.681-1.702,0.681c-1.4,0-2.528-1.114-2.528-2.515
		C47.941,82.25,49.069,81.121,50.469,81.121"/>
	<path fill="#FFFFFF" d="M55.15,81.122c1.402,0,2.522,1.127,2.522,2.527c0,1.401-1.12,2.515-2.522,2.515
		c-1.401,0-2.515-1.114-2.515-2.515C52.635,82.25,53.749,81.122,55.15,81.122 M55.15,85.044c0.77,0,1.402-0.631,1.402-1.395
		c0-0.77-0.632-1.407-1.402-1.407c-0.763,0-1.394,0.638-1.394,1.407C53.756,84.413,54.387,85.044,55.15,85.044"/>
	<path fill="#FFFFFF" d="M58.199,84.721v-0.636c0-0.078,0.055-0.134,0.134-0.134h1.603c0.077,0,0.134,0.057,0.134,0.134v0.636
		c0,0.072-0.057,0.127-0.134,0.127h-1.603C58.254,84.848,58.199,84.792,58.199,84.721"/>
	<path fill="#FFFFFF" d="M63.124,81.121c0.7,0,1.22,0.218,1.695,0.65c0.063,0.058,0.063,0.142,0.007,0.197l-0.545,0.567
		c-0.05,0.05-0.127,0.05-0.176,0c-0.259-0.231-0.602-0.356-0.944-0.356c-0.793,0-1.375,0.656-1.375,1.441
		c0,0.778,0.588,1.423,1.38,1.423c0.33,0,0.687-0.119,0.939-0.337c0.049-0.042,0.14-0.042,0.183,0.009l0.545,0.581
		c0.049,0.048,0.042,0.139-0.007,0.188c-0.476,0.462-1.079,0.681-1.702,0.681c-1.4,0-2.527-1.114-2.527-2.515
		C60.596,82.25,61.723,81.121,63.124,81.121"/>
	<path fill="#FFFFFF" d="M65.668,81.325c0-0.072,0.056-0.134,0.133-0.134h2.095c0.839,0,1.527,0.68,1.527,1.512
		c0,0.646-0.428,1.165-1.039,1.409l0.961,1.779c0.048,0.092,0,0.204-0.12,0.204h-0.931c-0.057,0-0.099-0.036-0.113-0.064
		l-0.932-1.855h-0.483v1.786c0,0.069-0.063,0.133-0.133,0.133h-0.833c-0.078,0-0.133-0.064-0.133-0.133V81.325z M67.804,83.286
		c0.288,0,0.534-0.266,0.534-0.561c0-0.293-0.246-0.533-0.534-0.533h-1.036v1.094H67.804z"/>
	<path fill="#FFFFFF" d="M70.363,81.325c0-0.072,0.057-0.134,0.134-0.134h2.899c0.078,0,0.133,0.063,0.133,0.134v0.762
		c0,0.071-0.055,0.134-0.133,0.134h-1.939v0.868h1.598c0.069,0,0.131,0.063,0.131,0.133v0.764c0,0.076-0.062,0.133-0.131,0.133
		h-1.598v0.947h1.939c0.078,0,0.133,0.063,0.133,0.133v0.763c0,0.069-0.055,0.133-0.133,0.133h-2.899
		c-0.077,0-0.134-0.064-0.134-0.133V81.325z"/>
	<path fill="#FFFFFF" d="M73.839,85.912l2.192-4.713c0.021-0.042,0.071-0.077,0.119-0.077h0.071c0.049,0,0.099,0.035,0.12,0.077
		l2.192,4.713c0.042,0.092-0.015,0.183-0.12,0.183h-0.777c-0.127,0-0.182-0.043-0.245-0.174l-0.253-0.554h-1.904l-0.254,0.561
		c-0.034,0.083-0.111,0.168-0.251,0.168h-0.771C73.854,86.095,73.797,86.004,73.839,85.912 M76.717,84.413l-0.532-1.155h-0.007
		l-0.524,1.155H76.717z"/>
	<path fill="#FFFFFF" d="M79.486,82.221h-1.002c-0.076,0-0.134-0.064-0.134-0.134v-0.762c0-0.072,0.058-0.134,0.134-0.134h3.111
		c0.075,0,0.133,0.063,0.133,0.134v0.762c0,0.07-0.058,0.134-0.133,0.134h-1.002v3.74c0,0.069-0.063,0.133-0.135,0.133h-0.839
		c-0.07,0-0.132-0.064-0.132-0.133V82.221z"/>
	<path fill="#FFFFFF" d="M82.429,81.325c0-0.072,0.055-0.134,0.133-0.134h2.899c0.077,0,0.133,0.063,0.133,0.134v0.762
		c0,0.071-0.056,0.134-0.133,0.134h-1.941v0.868h1.597c0.071,0,0.132,0.063,0.132,0.133v0.764c0,0.076-0.061,0.133-0.132,0.133
		h-1.597v0.947h1.941c0.077,0,0.133,0.063,0.133,0.133v0.763c0,0.069-0.056,0.133-0.133,0.133h-2.899
		c-0.078,0-0.133-0.064-0.133-0.133V81.325z"/>
	<path fill="#FFFFFF" d="M12.362,35.569c2.84,0,4.943,0.881,6.875,2.64c0.253,0.228,0.253,0.57,0.028,0.799l-2.215,2.3
		c-0.198,0.198-0.511,0.198-0.711,0c-1.05-0.938-2.443-1.449-3.834-1.449c-3.211,0-5.57,2.67-5.57,5.854
		c0,3.152,2.386,5.767,5.599,5.767c1.335,0,2.784-0.484,3.806-1.364c0.2-0.172,0.568-0.172,0.739,0.028l2.217,2.358
		c0.196,0.199,0.17,0.568-0.029,0.767c-1.932,1.875-4.375,2.757-6.903,2.757c-5.684,0-10.257-4.518-10.257-10.201
		S6.678,35.569,12.362,35.569"/>
	<path fill="#FFFFFF" d="M22.676,36.393c0-0.28,0.256-0.539,0.541-0.539h3.41c0.285,0,0.539,0.258,0.539,0.539v18.81
		c0,0.285-0.253,0.539-0.539,0.539h-3.41c-0.284,0-0.541-0.254-0.541-0.539V36.393z"/>
	<path fill="#FFFFFF" d="M34.609,40.03h-4.061c-0.313,0-0.541-0.255-0.541-0.538v-3.1c0-0.281,0.228-0.537,0.541-0.537h12.616
		c0.312,0,0.539,0.256,0.539,0.537v3.1c0,0.282-0.227,0.538-0.539,0.538H39.1v15.172c0,0.285-0.254,0.539-0.539,0.539h-3.41
		c-0.283,0-0.541-0.254-0.541-0.539V40.03z"/>
	<path fill="#FFFFFF" d="M46.738,36.393c0-0.28,0.255-0.539,0.54-0.539h3.41c0.285,0,0.54,0.258,0.54,0.539v18.81
		c0,0.285-0.255,0.539-0.54,0.539h-3.41c-0.285,0-0.54-0.254-0.54-0.539V36.393z"/>
	<path fill="#FFFFFF" d="M56.179,36.393c0-0.28,0.229-0.539,0.54-0.539h11.763c0.312,0,0.539,0.258,0.539,0.539v3.099
		c0,0.282-0.227,0.539-0.539,0.539h-7.869v3.522h6.478c0.283,0,0.539,0.254,0.539,0.54v3.098c0,0.313-0.256,0.54-0.539,0.54h-6.478
		v3.836h7.869c0.312,0,0.539,0.256,0.539,0.539v3.098c0,0.285-0.227,0.539-0.539,0.539H56.719c-0.311,0-0.54-0.254-0.54-0.539
		V36.393z"/>
	<path fill="#FFFFFF" d="M72.355,53.044l1.335-2.361c0.225-0.37,0.765-0.311,0.963-0.169c0.115,0.056,2.16,1.563,4.036,1.563
		c1.137,0,1.96-0.71,1.96-1.705c0-1.196-0.994-2.103-2.924-2.87c-2.446-0.969-5.514-2.871-5.514-6.28
		c0-2.812,2.188-5.653,6.563-5.653c2.957,0,5.23,1.507,6.081,2.13c0.339,0.2,0.285,0.711,0.169,0.911l-1.448,2.188
		c-0.198,0.311-0.71,0.566-0.966,0.367c-0.256-0.141-2.33-1.705-4.063-1.705c-1.021,0-1.791,0.682-1.791,1.449
		c0,1.051,0.854,1.848,3.096,2.755c2.218,0.883,5.742,2.614,5.742,6.479c0,2.926-2.53,5.882-6.706,5.882
		c-3.694,0-5.741-1.534-6.392-2.188C72.212,53.554,72.126,53.44,72.355,53.044"/>
	<path fill="#FFFFFF" d="M2.149,57.92c0-0.131,0.108-0.25,0.255-0.25h5.217c0.145,0,0.251,0.118,0.251,0.25v0.384
		c0,0.133-0.106,0.251-0.251,0.251H3.17v3.63h3.802c0.131,0,0.251,0.121,0.251,0.25v0.386c0,0.132-0.121,0.25-0.251,0.25H3.17v3.615
		c0,0.136-0.12,0.252-0.251,0.252H2.404c-0.147,0-0.255-0.116-0.255-0.252V57.92z"/>
	<path fill="#FFFFFF" d="M13.764,57.536c2.649,0,4.768,2.131,4.768,4.782c0,2.646-2.119,4.754-4.768,4.754
		c-2.648,0-4.755-2.108-4.755-4.754C9.009,59.667,11.116,57.536,13.764,57.536 M13.764,66.145c2.106,0,3.839-1.722,3.839-3.827
		s-1.733-3.854-3.839-3.854c-2.105,0-3.829,1.749-3.829,3.854S11.658,66.145,13.764,66.145"/>
	<path fill="#FFFFFF" d="M20.556,57.92c0-0.133,0.105-0.25,0.25-0.25h3.433c1.588,0,2.887,1.243,2.887,2.817
		c0,1.221-0.808,2.241-1.96,2.704l1.815,3.364c0.091,0.173,0,0.382-0.226,0.382h-0.673c-0.122,0-0.187-0.065-0.212-0.117
		l-1.763-3.512h-2.53v3.377c0,0.135-0.119,0.252-0.251,0.252h-0.519c-0.145,0-0.25-0.117-0.25-0.252V57.92z M24.173,62.436
		c1.018,0,1.908-0.845,1.908-1.933c0-1.008-0.89-1.869-1.908-1.869h-2.571v3.801H24.173z"/>
	<path fill="#FFFFFF" d="M30.007,58.149c0-0.284,0.229-0.54,0.541-0.54h3.382c0.283,0,0.538,0.256,0.538,0.54V73.32h6.764
		c0.31,0,0.537,0.258,0.537,0.542v3.094c0,0.286-0.227,0.542-0.537,0.542H30.548c-0.312,0-0.541-0.256-0.541-0.542V58.149z"/>
	<path fill="#FFFFFF" d="M46.654,58.149c0-0.284,0.254-0.54,0.542-0.54h3.407c0.284,0,0.539,0.256,0.539,0.54v18.807
		c0,0.286-0.255,0.542-0.539,0.542h-3.407c-0.287,0-0.542-0.256-0.542-0.542V58.149z"/>
	<path fill="#FFFFFF" d="M56.096,58.149c0-0.284,0.227-0.54,0.539-0.54h11.762c0.312,0,0.541,0.256,0.541,0.54v3.097
		c0,0.282-0.229,0.539-0.541,0.539h-7.869v4.095h6.48c0.282,0,0.538,0.253,0.538,0.537v3.096c0,0.286-0.255,0.541-0.538,0.541h-6.48
		v6.903c0,0.286-0.256,0.542-0.537,0.542h-3.356c-0.313,0-0.539-0.256-0.539-0.542V58.149z"/>
	<path fill="#FFFFFF" d="M72.753,58.149c0-0.284,0.225-0.54,0.539-0.54h11.761c0.312,0,0.541,0.256,0.541,0.54v3.097
		c0,0.282-0.229,0.539-0.541,0.539h-7.869v3.523h6.479c0.284,0,0.538,0.258,0.538,0.542v3.097c0,0.312-0.254,0.539-0.538,0.539
		h-6.479v3.835h7.869c0.312,0,0.541,0.258,0.541,0.542v3.094c0,0.286-0.229,0.542-0.541,0.542H73.292
		c-0.314,0-0.539-0.256-0.539-0.542V58.149z"/>
	<path fill="#FFFFFF" d="M68.782,10.468c1.022,0,1.855-0.829,1.855-1.85c0-1.022-0.833-1.849-1.855-1.849
		c-1.019,0-1.85,0.827-1.85,1.849C66.932,9.64,67.764,10.468,68.782,10.468 M76.283,12.036c-1.77,0-3.418,0.483-4.843,1.312
		c-1.481-1.057-3.261-1.715-5.191-1.821c-1.111-5.529-5.991-9.691-11.844-9.691c-6.434,0-11.681,5.036-12.044,11.378
		c-1.29,0.234-2.402,0.946-3.177,1.938c-1.35-1.022-3.025-1.638-4.854-1.638c-0.434,0-0.855,0.042-1.271,0.11
		c-1.761-2.176-4.446-3.57-7.456-3.57c-1.561,0-3.029,0.379-4.331,1.042c-1.963-2.529-5.024-4.163-8.473-4.163
		c-5.93,0-10.742,4.812-10.742,10.738c0,3.855,2.03,7.229,5.078,9.125V16.094l12.3-4.936v15.804
		c0.771,0.653,1.657,1.182,2.611,1.567v-2.317h1.895v-0.946h5.216v1.186h1.428v-4.262h2.53v7.33
		c0.399,0.059,0.803,0.098,1.214,0.098c1.193,0,2.322-0.265,3.337-0.728v-3.624h3.811c0.302-0.585,0.532-1.21,0.688-1.867
		c0.364,0.08,0.734,0.13,1.116,0.13c0.524,0,1.026-0.079,1.501-0.22v-2.837h2.084v-9.896l2.065,1.41v9.731h2.615V8.956h7.635v7.669
		h1.483v6.039h1.658v6.449h2.616v0.918h1.419v-0.682h2.707v-4.557h1.326V20.53h0.924v-2.135h5.717v2.135h0.951v4.262h1.187v3.319
		h1.422v-0.951h0.947v1.43h1.52c1.783-1.76,2.883-4.191,2.883-6.891C85.943,16.364,81.62,12.036,76.283,12.036 M38.674,13.473
		c1.026,0,1.85-0.831,1.85-1.848c0-1.024-0.824-1.852-1.85-1.852c-1.021,0-1.848,0.828-1.848,1.852
		C36.826,12.642,37.652,13.473,38.674,13.473"/>
</g>
</svg>
