<?xml version="1.0" encoding="utf-8"?>
<!-- Generator: Adobe Illustrator 16.0.0, SVG Export Plug-In . SVG Version: 6.00 Build 0)  -->
<!DOCTYPE svg PUBLIC "-//W3C//DTD SVG 1.1//EN" "http://www.w3.org/Graphics/SVG/1.1/DTD/svg11.dtd">
<svg version="1.1" id="Capa_1" xmlns="http://www.w3.org/2000/svg" xmlns:xlink="http://www.w3.org/1999/xlink" x="0px" y="0px"
	 width="1477.676px" height="125.342px" viewBox="0 0 1477.676 125.342" enable-background="new 0 0 1477.676 125.342"
	 xml:space="preserve">
<polygon opacity="0.05" fill="#FFFFFF" enable-background="new    " points="0,127.356 0.052,116.39 9.265,116.435 9.302,108.729 
	14.566,108.752 14.586,104.604 19.63,104.629 19.612,108.481 28.605,108.524 28.59,111.785 33.415,111.808 33.383,118.623 
	39.524,118.653 39.561,110.946 46.58,110.981 46.666,93.199 51.929,93.226 51.944,90.26 57.427,90.285 57.41,93.842 59.604,93.854 
	59.637,86.74 66.437,86.772 66.418,90.625 70.147,90.644 70.045,111.983 73.993,112.002 73.973,116.151 78.799,116.174 
	78.95,84.758 84.531,84.785 84.548,81.229 97.391,81.289 97.374,84.847 103.954,84.877 103.808,115.403 130.13,115.531 
	130.339,71.666 133.41,71.683 133.429,67.531 140.668,67.565 140.652,71.123 145.478,71.147 145.269,114.713 149.874,114.735 
	150.061,75.612 153.132,75.629 153.154,71.185 162.147,71.226 162.131,74.485 165.859,74.504 165.747,97.918 169.695,97.938 
	169.718,93.196 173.885,93.215 173.863,97.959 177.591,97.976 177.63,90.271 198.465,90.369 198.354,113.785 204.935,113.813 
	205.009,98.106 225.189,98.203 225.122,112.431 235.649,112.481 235.774,86.399 239.284,86.416 239.304,81.972 246.983,82.006 
	246.962,86.153 255.077,86.194 255.056,90.642 262.074,90.676 261.966,113.496 266.573,113.519 266.652,96.92 269.504,96.935 
	269.523,92.783 277.64,92.824 277.618,96.974 282.663,96.998 282.601,110.039 301.026,110.127 301.262,60.926 303.454,60.939 
	303.513,48.785 307.023,48.803 307.059,41.393 327.458,41.49 327.423,48.605 333.564,48.633 333.254,113.246 339.615,113.274 
	339.758,83.638 342.827,83.651 342.87,75.058 347.256,75.078 347.237,79.228 352.501,79.252 352.486,82.217 357.094,82.237 
	356.943,113.653 360.671,113.674 360.702,107.151 365.966,107.179 366.125,74.278 368.317,74.289 370.415,71.483 377.982,71.521 
	377.965,74.931 381.476,74.944 381.299,111.696 399.284,111.783 399.543,58.139 408.535,58.18 408.514,62.627 410.708,62.637 
	410.722,59.672 424.321,59.738 424.301,63.888 428.468,63.908 428.239,111.627 433.505,111.649 433.576,96.535 437.744,96.556 
	437.763,92.406 443.26,92.433 443.239,96.58 448.929,96.608 448.86,111.131 457.195,111.172 457.368,75.013 460.22,75.026 
	460.279,62.578 478.923,62.668 478.898,68.002 483.724,68.024 483.611,91.44 496.333,91.502 496.739,7.031 498.274,7.039 498.297,2 
	509.484,2.055 509.472,4.424 516.053,4.457 515.626,93.668 532.295,93.748 532.408,70.037 545.131,70.099 545.222,50.832 
	563.648,50.922 563.618,57.145 568.005,57.168 567.932,72.283 573.197,72.31 573.22,67.271 585.284,67.326 585.259,72.662 
	590.743,72.688 590.694,82.767 593.985,82.781 594.16,46.029 597.45,46.045 597.485,38.934 603.845,38.963 612.18,39.002 
	612.165,42.559 619.183,42.592 619.081,63.933 626.538,63.969 626.563,58.93 634.677,58.969 634.66,62.525 645.189,62.576 
	645.153,70.281 648.88,70.299 648.899,66.597 652.408,66.61 652.427,62.609 660.763,62.65 660.743,66.651 666.446,66.679 
	666.433,69.196 669.066,69.209 669.027,77.51 673.193,77.528 673.219,72.194 681.554,72.233 681.571,68.679 685.3,68.694 
	685.309,66.769 693.425,66.81 693.406,70.812 699.109,70.836 699.09,74.69 705.89,74.724 705.866,79.465 709.157,79.479 
	709.039,104.375 710.574,104.385 710.605,97.565 713.458,97.58 713.56,76.24 715.314,76.248 715.332,72.692 721.472,72.724 
	721.458,75.981 723.431,75.992 723.341,94.961 726.192,94.976 726.325,66.967 742.557,67.043 742.522,74.603 744.557,74.61 
	744.516,83.207 745.77,83.213 745.661,106.033 750.266,106.058 750.282,102.795 752.256,102.808 752.295,94.804 754.049,94.812 
	754.2,63.396 766.483,63.453 766.391,82.422 768.366,82.433 768.305,95.176 773.79,95.201 773.733,107.06 777.241,107.074 
	777.272,100.853 783.194,100.879 783.211,97.026 803.172,97.121 803.194,92.974 808.237,92.996 808.213,97.737 813.479,97.765 
	813.426,108.731 817.813,108.75 817.862,98.674 820.932,98.688 821.008,82.685 824.081,82.699 824.112,76.179 827.622,76.194 
	829.717,73.39 836.188,73.42 836.348,39.779 849.508,39.842 849.346,73.929 856.584,73.963 856.459,100.045 860.625,100.063 
	860.782,67.608 872.188,67.664 872.17,71.074 883.137,71.127 883.081,82.981 888.346,83.006 888.389,74.115 896.502,74.153 
	896.53,69.412 903.764,69.446 903.627,98.492 914.813,98.547 914.971,65.353 916.946,65.36 916.959,62.693 928.584,62.748 
	928.559,67.937 941.5,67.998 941.338,101.638 947.479,101.666 947.432,111.744 954.233,111.774 954.29,99.625 957.799,99.642 
	957.823,94.604 962.649,94.627 962.528,124.556 "/>
<polygon opacity="0.05" fill="#FFFFFF" enable-background="new    " points="961.92,125.356 961.973,114.39 971.188,114.435 
	971.223,106.729 976.489,106.752 976.506,102.604 981.551,102.629 981.534,106.481 990.528,106.524 990.51,109.785 995.336,109.808 
	995.303,116.623 1001.448,116.653 1001.483,108.946 1008.5,108.981 1008.586,91.199 1013.85,91.226 1013.866,88.26 1019.348,88.285 
	1019.333,91.842 1021.526,91.854 1021.559,84.74 1028.36,84.772 1028.34,88.625 1032.071,88.644 1031.965,109.983 1035.917,110.002 
	1035.895,114.151 1040.721,114.174 1040.872,82.758 1046.454,82.785 1046.469,79.229 1059.313,79.289 1059.295,82.847 
	1065.875,82.877 1065.731,113.403 1092.051,113.531 1092.26,69.666 1095.333,69.683 1095.35,65.531 1102.59,65.565 1102.575,69.123 
	1107.401,69.147 1107.192,112.713 1111.795,112.735 1111.983,73.612 1115.053,73.629 1115.077,69.185 1124.071,69.226 
	1124.053,72.485 1127.782,72.504 1127.668,95.918 1131.618,95.938 1131.639,91.196 1135.807,91.215 1135.786,95.959 
	1139.512,95.976 1139.551,88.271 1160.387,88.369 1160.276,111.785 1166.858,111.813 1166.93,96.106 1187.112,96.203 
	1187.042,110.431 1197.573,110.481 1197.698,84.399 1201.208,84.416 1201.225,79.972 1208.905,80.006 1208.883,84.153 1217,84.194 
	1216.979,88.642 1223.997,88.676 1223.887,111.496 1228.495,111.519 1228.575,94.92 1231.424,94.935 1231.446,90.783 
	1239.563,90.824 1239.542,94.974 1244.583,94.998 1244.524,108.039 1262.95,108.127 1263.182,58.926 1265.375,58.939 
	1265.436,46.785 1268.946,46.803 1268.981,39.393 1289.377,39.49 1289.344,46.605 1295.487,46.633 1295.174,111.246 
	1301.538,111.274 1301.678,81.638 1304.75,81.651 1304.792,73.058 1309.176,73.078 1309.159,77.228 1314.422,77.252 
	1314.409,80.217 1319.014,80.237 1318.866,111.653 1322.592,111.674 1322.625,105.151 1327.887,105.179 1328.045,72.278 
	1330.241,72.289 1332.336,69.483 1339.905,69.521 1339.885,72.931 1343.399,72.944 1343.219,109.696 1361.208,109.783 
	1361.463,56.139 1370.458,56.18 1370.438,60.627 1372.627,60.637 1372.645,57.672 1386.245,57.738 1386.221,61.887 1390.389,61.908 
	1390.163,109.627 1395.426,109.649 1395.499,94.535 1399.667,94.556 1399.686,90.406 1405.18,90.433 1405.163,94.58 1410.85,94.608 
	1410.784,109.131 1419.118,109.172 1419.292,73.013 1422.141,73.026 1422.202,60.578 1440.844,60.668 1440.821,66.002 
	1445.647,66.024 1445.534,89.44 1458.254,89.502 1458.661,5.031 1460.196,5.039 1460.217,0 1471.407,0.055 1471.395,2.424 
	1477.975,2.457 1477.547,91.668 1494.215,91.748 1494.331,68.037 1507.051,68.099 1507.145,48.832 1525.571,48.922 1525.542,55.145 
	1529.926,55.168 1529.854,70.283 1535.12,70.31 1535.141,65.271 1547.208,65.326 1547.18,70.662 1552.667,70.688 1552.616,80.767 
	1555.907,80.781 1556.083,44.029 1559.374,44.045 1559.407,36.934 1565.766,36.963 1574.104,37.002 1574.084,40.559 
	1581.106,40.592 1581,61.932 1588.458,61.969 1588.485,56.93 1596.598,56.969 1596.583,60.525 1607.112,60.576 1607.075,68.281 
	1610.801,68.299 1610.821,64.597 1614.331,64.61 1614.348,60.609 1622.686,60.65 1622.667,64.651 1628.368,64.679 1628.356,67.196 
	1630.989,67.209 1630.95,75.51 1635.116,75.528 1635.139,70.194 1643.475,70.233 1643.493,66.679 1647.221,66.694 1647.231,64.769 
	1655.346,64.81 1655.329,68.812 1661.032,68.836 1661.01,72.69 1667.813,72.724 1667.79,77.465 1671.081,77.479 1670.959,102.375 
	1672.497,102.385 1672.528,95.565 1675.379,95.58 1675.483,74.24 1677.237,74.248 1677.252,70.692 1683.395,70.724 1683.377,73.981 
	1685.354,73.992 1685.262,92.961 1688.114,92.976 1688.249,64.967 1704.479,65.043 1704.444,72.603 1706.479,72.61 1706.438,81.207 
	1707.692,81.213 1707.583,104.033 1712.19,104.058 1712.206,100.795 1714.178,100.808 1714.215,92.804 1715.971,92.812 
	1716.122,61.395 1728.405,61.453 1728.315,80.422 1730.29,80.433 1730.229,93.176 1735.709,93.201 1735.655,105.06 
	1739.165,105.074 1739.194,98.853 1745.116,98.879 1745.133,95.026 1765.092,95.121 1765.116,90.974 1770.159,90.996 
	1770.135,95.737 1775.401,95.765 1775.346,106.731 1779.735,106.75 1779.784,96.674 1782.854,96.688 1782.928,80.685 1786,80.699 
	1786.034,74.179 1789.542,74.194 1791.637,71.39 1798.11,71.42 1798.272,37.779 1811.43,37.842 1811.27,71.929 1818.504,71.963 
	1818.379,98.045 1822.547,98.063 1822.704,65.608 1834.11,65.664 1834.092,69.074 1845.061,69.127 1845,80.981 1850.266,81.006 
	1850.313,72.115 1858.424,72.153 1858.452,67.412 1865.688,67.446 1865.547,96.492 1876.735,96.547 1876.895,63.353 1878.868,63.36 
	1878.881,60.693 1890.504,60.748 1890.483,65.937 1903.42,65.998 1903.26,99.638 1909.401,99.666 1909.354,109.744 
	1916.155,109.774 1916.209,97.625 1919.721,97.642 1919.745,92.604 1924.571,92.627 1924.45,122.556 "/>
</svg>
