<?xml version="1.0" encoding="utf-8"?>
<!-- Generator: Adobe Illustrator 16.0.0, SVG Export Plug-In . SVG Version: 6.00 Build 0)  -->
<!DOCTYPE svg PUBLIC "-//W3C//DTD SVG 1.1//EN" "http://www.w3.org/Graphics/SVG/1.1/DTD/svg11.dtd">
<svg version="1.1" id="Capa_1" xmlns="http://www.w3.org/2000/svg" xmlns:xlink="http://www.w3.org/1999/xlink" x="0px" y="0px"
	 width="158px" height="158px" viewBox="0 0 158 158" enable-background="new 0 0 158 158" xml:space="preserve">
<g>
	<g>
		<path fill="none" stroke="#C4D459" stroke-miterlimit="10" d="M155.719,79.651c0,42.277-34.271,76.543-76.545,76.543
			S2.631,121.929,2.631,79.651c0-42.274,34.27-76.547,76.543-76.547S155.719,37.377,155.719,79.651z"/>
		<g>
			<path fill="none" stroke="#C4D459" stroke-width="4" stroke-miterlimit="10" d="M19.19,32.211
				c3.625-4.624,7.775-8.821,12.355-12.502"/>
			<path fill="none" stroke="#C4D459" stroke-width="4" stroke-miterlimit="10" d="M31.655,139.495
				c-4.367-3.497-8.34-7.461-11.848-11.82"/>
			<path fill="none" stroke="#C4D459" stroke-width="4" stroke-miterlimit="10" d="M138.836,127.71
				c-3.576,4.393-7.633,8.383-12.086,11.887"/>
			<path fill="none" stroke="#C4D459" stroke-width="4" stroke-miterlimit="10" d="M130.51,22.825
				c2.934,2.676,5.658,5.574,8.145,8.673"/>
		</g>
	</g>
	<g>
		<path fill="#C4D459" d="M105.446,84.935c0-0.66-0.535-1.193-1.195-1.193h-40.6c-0.658,0-1.193,0.533-1.193,1.193v31.047
			c0,0.66,0.535,1.195,1.193,1.195h40.6c0.66,0,1.195-0.535,1.195-1.195v-1.193h9.553v-2.389h-9.553V96.876
			c0-0.66-0.535-1.195-1.195-1.195h-2.389h-4.775c-2.883,0-5.295-2.055-5.85-4.775h23.762v-2.387h-9.553V84.935z M97.086,98.069
			h4.775h1.195v16.719H64.846v-28.66h38.211v2.391H89.922c-0.66,0-1.195,0.533-1.195,1.191
			C88.727,94.319,92.477,98.069,97.086,98.069z"/>
		<path fill="#C4D459" d="M74.047,91.255c-0.465-0.467-1.221-0.467-1.688,0l-4.777,4.775c-0.465,0.469-0.465,1.223,0,1.689
			l4.777,4.778c0.234,0.231,0.539,0.35,0.844,0.35c0.307,0,0.611-0.118,0.844-0.35l4.777-4.778c0.467-0.467,0.467-1.221,0-1.689
			L74.047,91.255z M73.204,99.964l-3.088-3.088l3.088-3.088l3.088,3.088L73.204,99.964z"/>
		<rect x="68.428" y="105.235" fill="#C4D459" width="9.553" height="2.389"/>
		<rect x="68.428" y="110.011" fill="#C4D459" width="9.553" height="2.389"/>
		<rect x="81.563" y="88.519" fill="#C4D459" width="2.389" height="23.881"/>
		<rect x="86.34" y="100.458" fill="#C4D459" width="4.775" height="2.39"/>
		<rect x="93.504" y="100.458" fill="#C4D459" width="7.164" height="2.39"/>
		<rect x="86.34" y="105.235" fill="#C4D459" width="9.551" height="2.389"/>
		<rect x="86.34" y="110.011" fill="#C4D459" width="2.387" height="2.389"/>
		<rect x="91.116" y="110.011" fill="#C4D459" width="2.389" height="2.389"/>
		<rect x="95.891" y="110.011" fill="#C4D459" width="2.389" height="2.389"/>
		<path fill="#C4D459" d="M94.698,45.529h-40.6c-0.66,0-1.195,0.534-1.195,1.197v1.188h-9.551v2.394h9.551v15.524
			c0,0.66,0.535,1.188,1.195,1.188h7.166c2.883,0,5.295,2.062,5.85,4.779H43.352v2.385h9.551v3.582c0,0.662,0.535,1.197,1.195,1.197
			h40.6c0.662,0,1.191-0.535,1.191-1.197v-31.04C95.889,46.063,95.36,45.529,94.698,45.529z M93.502,76.577H55.295v-2.393h13.133
			c0.66,0,1.195-0.529,1.195-1.189c0-4.607-3.752-8.359-8.359-8.359h-5.969V47.914h38.207V76.577z"/>
		<path fill="#E6E48D" d="M55.295,47.914v16.722h5.969c4.607,0,8.359,3.752,8.359,8.359c0,0.66-0.535,1.189-1.195,1.189H55.295
			v2.393h38.207V47.914H55.295z M80.37,50.308h9.551v2.386H80.37V50.308z M80.37,55.086h9.551v2.386H80.37V55.086z M64.844,50.308
			h2.387v2.386h-2.387V50.308z M60.067,50.308h2.393v2.386h-2.393V50.308z M64.844,62.249H57.68v-2.393h7.164V62.249z M72.01,62.249
			h-4.779v-2.393h4.779V62.249z M72.01,57.472h-9.551v-2.386h9.551V57.472z M72.01,52.693h-2.387v-2.386h2.387V52.693z
			 M76.788,74.185h-2.393V50.308h2.393V74.185z M85.143,71.8c-3.289,0-5.969-2.68-5.969-5.968c0-3.296,2.68-5.976,5.969-5.976
			c3.293,0,5.975,2.68,5.975,5.976C91.118,69.12,88.436,71.8,85.143,71.8z"/>
		<rect x="80.37" y="55.086" fill="#C4D459" width="9.551" height="2.386"/>
		<rect x="80.37" y="50.308" fill="#C4D459" width="9.551" height="2.386"/>
		<rect x="74.395" y="50.308" fill="#C4D459" width="2.393" height="23.877"/>
		<rect x="67.231" y="59.856" fill="#C4D459" width="4.779" height="2.393"/>
		<rect x="57.68" y="59.856" fill="#C4D459" width="7.164" height="2.393"/>
		<rect x="62.459" y="55.086" fill="#C4D459" width="9.551" height="2.386"/>
		<rect x="69.624" y="50.308" fill="#C4D459" width="2.387" height="2.386"/>
		<rect x="64.844" y="50.308" fill="#C4D459" width="2.387" height="2.386"/>
		<rect x="60.067" y="50.308" fill="#C4D459" width="2.393" height="2.386"/>
		<path fill="#C4D459" d="M85.143,59.856c-3.289,0-5.969,2.68-5.969,5.976c0,3.288,2.68,5.968,5.969,5.968
			c3.293,0,5.975-2.68,5.975-5.968C91.118,62.536,88.436,59.856,85.143,59.856z M85.143,69.414c-1.975,0-3.582-1.608-3.582-3.582
			c0-1.973,1.607-3.583,3.582-3.583c1.979,0,3.582,1.61,3.582,3.583C88.725,67.806,87.122,69.414,85.143,69.414z"/>
		<path fill="#C4D459" d="M106.858,70.163c0.285,0.707,0.549,1.434,0.779,2.162l2.275-0.723c-0.248-0.785-0.531-1.568-0.84-2.334
			L106.858,70.163z"/>
		<path fill="#C4D459" d="M104.811,66.056c0.395,0.655,0.764,1.332,1.104,2.016l2.139-1.064c-0.367-0.736-0.768-1.471-1.191-2.177
			L104.811,66.056z"/>
		<path fill="#C4D459" d="M102.161,62.314c0.484,0.584,0.957,1.197,1.396,1.82l1.949-1.382c-0.475-0.671-0.984-1.332-1.51-1.965
			L102.161,62.314z"/>
		<path fill="#C4D459" d="M98.967,59.019c0.572,0.507,1.131,1.039,1.66,1.586l1.717-1.661c-0.572-0.591-1.174-1.166-1.791-1.713
			L98.967,59.019z"/>
		<path fill="#C4D459" d="M108.245,74.538c0.174,0.744,0.32,1.504,0.436,2.254l2.361-0.36c-0.125-0.813-0.283-1.632-0.469-2.438
			L108.245,74.538z"/>
		<path fill="#C4D459" d="M111.323,78.896l-2.379,0.179c0.055,0.75,0.084,1.516,0.084,2.277v0.02l2.387-0.02
			C111.415,80.53,111.385,79.706,111.323,78.896z"/>
		<path fill="#C4D459" d="M108.674,85.946l2.363,0.366c0.123-0.813,0.219-1.642,0.283-2.464l-2.381-0.18
			C108.879,84.425,108.792,85.192,108.674,85.946z"/>
		<path fill="#C4D459" d="M47.032,78.856l2.381,0.182c0.059-0.76,0.146-1.527,0.262-2.281l-2.361-0.363
			C47.188,77.206,47.092,78.034,47.032,78.856z"/>
		<path fill="#C4D459" d="M48.436,91.103c0.248,0.785,0.533,1.57,0.842,2.334l2.215-0.896c-0.287-0.705-0.547-1.432-0.779-2.16
			L48.436,91.103z"/>
		<path fill="#C4D459" d="M50.295,95.698c0.369,0.736,0.77,1.471,1.193,2.178l2.049-1.227c-0.393-0.654-0.764-1.332-1.102-2.016
			L50.295,95.698z"/>
		<path fill="#C4D459" d="M47.307,86.272c0.125,0.813,0.283,1.633,0.471,2.438l2.324-0.543c-0.174-0.746-0.318-1.504-0.434-2.256
			L47.307,86.272z"/>
		<path fill="#C4D459" d="M56.008,103.764c0.57,0.589,1.172,1.165,1.789,1.712l1.584-1.787c-0.572-0.506-1.131-1.041-1.658-1.586
			L56.008,103.764z"/>
		<path fill="#C4D459" d="M47.026,83.81l2.381-0.18c-0.057-0.752-0.084-1.516-0.084-2.277v-0.02l-2.389,0.02
			C46.934,82.173,46.965,82.999,47.026,83.81z"/>
		<path fill="#C4D459" d="M56.188,100.39c-0.484-0.584-0.955-1.197-1.395-1.82l-1.951,1.381c0.477,0.672,0.986,1.334,1.512,1.967
			L56.188,100.39z"/>
	</g>
</g>
</svg>
