<?xml version="1.0" encoding="utf-8"?>
<!-- Generator: Adobe Illustrator 16.0.0, SVG Export Plug-In . SVG Version: 6.00 Build 0)  -->
<!DOCTYPE svg PUBLIC "-//W3C//DTD SVG 1.1//EN" "http://www.w3.org/Graphics/SVG/1.1/DTD/svg11.dtd">
<svg version="1.1" id="Capa_1" xmlns="http://www.w3.org/2000/svg" xmlns:xlink="http://www.w3.org/1999/xlink" x="0px" y="0px"
	 width="27.734px" height="21.861px" viewBox="0 0 27.734 21.861" enable-background="new 0 0 27.734 21.861" xml:space="preserve">
<g>
	<g>
		<path fill="#FFFFFF" d="M23.72,21.861H1.727c-0.033,0-0.067-0.002-0.101-0.01C1.064,21.76,0,21.23,0,19.902
			c0-1.143,0.031-8.738,0.031-8.816v-4.42c0-1.662,1.024-1.789,1.341-1.789c0.548,0,1.039,0.313,1.13,0.375l6.236,4.023V7.297
			c0-0.025,0.002-0.047,0.003-0.07v-0.9c0-0.699,0.45-1.016,0.896-1.016c0.402,0,0.79,0.258,0.922,0.355l1.7,1.135l3.822,2.475
			V6.361c0-0.699,0.448-1.01,0.892-1.01c0.401,0,0.787,0.254,0.918,0.35l6.521,4.361c0.416,0.258,1.098,0.951,1.098,1.969v8.023
			c0.008,0.162,0.004,0.791-0.445,1.277C24.841,21.572,24.427,21.861,23.72,21.861z M1.793,20.623H23.72
			c0.205,0,0.352-0.041,0.434-0.127c0.107-0.113,0.123-0.322,0.119-0.387c0-0.014,0-0.021,0-0.037v-8.041
			c0-0.582-0.5-0.908-0.521-0.922c-0.003-0.002-0.013-0.01-0.019-0.012l-6.417-4.291v3.604c0,0.225-0.124,0.434-0.324,0.541
			c-0.2,0.109-0.44,0.102-0.63-0.023l-4.784-3.094l-1.6-1.068v0.525c0,0.025-0.002,0.049-0.003,0.068v3.051
			c0,0.225-0.125,0.434-0.324,0.541c-0.199,0.109-0.442,0.102-0.631-0.023L1.823,6.285c-0.11-0.074-0.321-0.174-0.451-0.174
			c-0.005,0-0.009,0-0.013,0C1.336,6.15,1.269,6.291,1.269,6.666v4.424c-0.001,0.078-0.032,7.67-0.032,8.813
			C1.236,20.424,1.619,20.578,1.793,20.623z"/>
	</g>
	<g>
		<path fill="#FFFFFF" d="M21.957,7.646c-0.119,0-0.238-0.033-0.34-0.1l-2.824-1.854c-0.174-0.113-0.278-0.309-0.278-0.518V2.027
			c0-1.115,0.91-2.027,2.03-2.027c1.119,0,2.029,0.912,2.029,2.027v5c0,0.229-0.123,0.436-0.324,0.545
			C22.158,7.623,22.058,7.646,21.957,7.646z M19.75,4.844l1.587,1.039V2.027c0-0.436-0.357-0.791-0.793-0.791
			c-0.437,0-0.794,0.355-0.794,0.791V4.844z"/>
	</g>
	<g>
		<path fill="#FFFFFF" d="M25.121,9.752c-0.098,0-0.193-0.031-0.277-0.09l-1.695-1.215c-0.125-0.09-0.199-0.234-0.199-0.389V6.773
			c0-0.029,0.002-0.055,0.006-0.076c0.059-0.682,0.627-1.209,1.318-1.209c0.707,0,1.293,0.566,1.32,1.271
			c0.002,0.014,0.002,0.025,0.002,0.039l0,0c0,0.002,0,0.008,0,0.008c0,0.01,0,0.016,0,0.016v2.457c0,0.176-0.098,0.34-0.258,0.422
			C25.269,9.734,25.195,9.752,25.121,9.752z M23.896,7.816l0.75,0.537V6.822V6.807c-0.004-0.205-0.172-0.371-0.373-0.371
			s-0.365,0.158-0.375,0.359c0,0.006,0,0.012-0.002,0.02V7.816z"/>
	</g>
	<g>
		<path fill="#FFFFFF" d="M27.314,17.789H27.31h-4.793c-0.148,0-0.289-0.08-0.363-0.211c-0.076-0.131-0.076-0.291,0-0.418
			l2.395-4.154c0.078-0.133,0.217-0.209,0.365-0.209c0.15,0,0.291,0.076,0.365,0.209l2.377,4.117
			c0.049,0.07,0.078,0.154,0.078,0.246C27.734,17.602,27.546,17.789,27.314,17.789z M23.248,16.947h3.336l-1.67-2.889L23.248,16.947
			z"/>
	</g>
	<g>
		<path fill="#010300" d="M23.248,16.947h3.336l-1.668-2.889L23.248,16.947z"/>
	</g>
</g>
</svg>
