<?xml version="1.0" encoding="utf-8"?>
<!-- Generator: Adobe Illustrator 16.0.0, SVG Export Plug-In . SVG Version: 6.00 Build 0)  -->
<!DOCTYPE svg PUBLIC "-//W3C//DTD SVG 1.1//EN" "http://www.w3.org/Graphics/SVG/1.1/DTD/svg11.dtd">
<svg version="1.1" id="Capa_1" xmlns="http://www.w3.org/2000/svg" xmlns:xlink="http://www.w3.org/1999/xlink" x="0px" y="0px"
	 width="31.497px" height="20.496px" viewBox="0 0 31.497 20.496" enable-background="new 0 0 31.497 20.496" xml:space="preserve">
<g>
	<path fill="#FFFFFF" d="M20.117,3.219c-1.175,0-1.783-0.428-2.32-0.809c-0.484-0.34-0.865-0.611-1.705-0.611
		c-0.835,0-1.218,0.271-1.703,0.611c-0.537,0.381-1.144,0.809-2.321,0.809c-1.174,0-1.784-0.428-2.318-0.809
		C9.265,2.07,8.882,1.799,8.046,1.799S6.827,2.07,6.343,2.41c-0.537,0.381-1.146,0.809-2.32,0.809c-1.177,0-1.784-0.428-2.32-0.809
		C1.218,2.07,0.836,1.799,0,1.799V0.73c1.177,0,1.784,0.43,2.32,0.807C2.803,1.883,3.187,2.15,4.022,2.15S5.24,1.883,5.725,1.537
		C6.262,1.16,6.869,0.73,8.046,0.73s1.783,0.43,2.32,0.807c0.484,0.346,0.865,0.613,1.702,0.613c0.838,0,1.221-0.268,1.704-0.613
		c0.538-0.377,1.145-0.807,2.319-0.807c1.178,0,1.785,0.43,2.322,0.807c0.485,0.346,0.868,0.613,1.703,0.613V3.219z"/>
	<path fill="#FFFFFF" d="M20.117,6.295c-1.175,0-1.783-0.432-2.32-0.809c-0.484-0.342-0.865-0.613-1.705-0.613
		c-0.835,0-1.218,0.271-1.703,0.613c-0.537,0.377-1.145,0.809-2.321,0.809c-1.174,0-1.784-0.432-2.318-0.809
		C9.265,5.145,8.882,4.873,8.046,4.873S6.827,5.145,6.343,5.486c-0.537,0.377-1.146,0.809-2.32,0.809
		c-1.177,0-1.784-0.432-2.32-0.809C1.218,5.145,0.836,4.873,0,4.873V3.805c1.177,0,1.784,0.428,2.32,0.807
		c0.482,0.342,0.866,0.611,1.702,0.611s1.218-0.27,1.703-0.611c0.537-0.379,1.144-0.807,2.321-0.807s1.783,0.428,2.32,0.807
		c0.484,0.342,0.865,0.611,1.702,0.611c0.838,0,1.221-0.27,1.704-0.611c0.538-0.379,1.145-0.807,2.319-0.807
		c1.178,0,1.784,0.428,2.322,0.807c0.485,0.342,0.868,0.611,1.703,0.611V6.295z"/>
	<g>
		<path fill="#FFFFFF" d="M12.068,3.84c-0.251,0-0.461-0.033-0.674-0.066c-0.038,0.213-0.079,0.432-0.121,0.658
			c0.215,0.104,0.446,0.164,0.795,0.164c0.639,0,0.889-0.174,1.344-0.496c0.412-0.291,0.906-0.617,1.628-0.791l-0.214-0.443
			c-0.025,0.018-0.047,0.031-0.072,0.051C14.197,3.307,13.443,3.84,12.068,3.84z"/>
		<path fill="#FFFFFF" d="M13.414,7.18c0.589-0.414,1.311-0.922,2.678-0.922c0.142,0,0.25,0.025,0.377,0.033l-0.446-0.936
			c-0.582,0.021-0.84,0.256-1.273,0.564c-0.557,0.391-1.313,0.961-2.681,0.961c-0.482,0-0.867-0.078-1.216-0.18
			c-0.032,0.168-0.062,0.334-0.094,0.504c0.432,0.303,0.689,0.471,1.31,0.471C12.712,7.676,12.962,7.5,13.414,7.18z"/>
		<path fill="#FFFFFF" d="M13.414,1.031c0.125-0.088,0.262-0.18,0.403-0.271l-0.094-0.195c-0.001-0.004-0.003-0.01-0.003-0.01
			l-0.036-0.076C13.523,0.205,13.221,0.02,12.87,0.02c-0.457,0-0.837,0.316-0.913,0.732c0,0-0.052,0.279-0.142,0.758
			c0.082,0.01,0.156,0.02,0.253,0.02C12.709,1.529,12.959,1.354,13.414,1.031z"/>
		<path fill="#FFFFFF" d="M31.473,18.244l-3.27-17.525C28.125,0.303,27.762,0,27.307,0c-0.367,0-0.682,0.219-0.836,0.543
			c-0.041,0.08-0.081,0.168-0.119,0.25c-0.047,0.102-0.094,0.199-0.141,0.295c-0.059,0.121-0.115,0.24-0.172,0.365
			c-0.074,0.143-0.145,0.293-0.215,0.441c-0.082,0.174-0.168,0.35-0.25,0.521c-0.092,0.195-0.188,0.391-0.281,0.586
			c-0.1,0.207-0.199,0.416-0.299,0.627c-0.104,0.217-0.209,0.436-0.313,0.65c-0.109,0.225-0.215,0.449-0.32,0.668
			c-0.109,0.23-0.219,0.455-0.328,0.682c-0.109,0.229-0.215,0.455-0.326,0.68C23.6,6.531,23.5,6.748,23.395,6.969
			c-0.1,0.203-0.198,0.412-0.299,0.619c-0.09,0.191-0.183,0.383-0.275,0.578c-0.082,0.174-0.172,0.35-0.253,0.523
			c-0.074,0.162-0.15,0.316-0.226,0.473c-0.061,0.127-0.123,0.256-0.185,0.385c-0.044,0.09-0.088,0.182-0.131,0.271
			c-0.025,0.057-0.05,0.107-0.074,0.164c-0.014,0.025-0.028,0.055-0.041,0.08l-0.25,0.516l-0.014,0.031l-0.01,0.025l-0.039,0.076
			c-0.275,0.521-0.839,0.879-1.485,0.887c-0.648-0.008-1.23-0.365-1.506-0.887l-0.058-0.076l-0.01-0.025l-0.012-0.025l-0.25-0.521
			l-0.287-0.6c-0.201-0.123-0.382-0.244-0.54-0.354c-0.47-0.33-0.72-0.523-1.36-0.523c-0.638,0-0.889,0.168-1.343,0.49
			c-0.565,0.393-1.317,0.916-2.681,0.916c-0.752,0-1.307-0.166-1.756-0.373c-0.691,3.736-1.34,7.236-1.34,7.236
			c-0.095,0.441-0.257,1.012-0.303,1.354c0,0-0.517,1.873,1.797,2.248c1.789,0.291,2.266-1.168,2.391-1.848
			c0.013-0.047,0.021-0.098,0.025-0.141c0.014-0.115,0.021-0.191,0.021-0.191l0.084-0.83l0.6-5.623l0.044-0.416
			c0.028-0.396,0.372-0.693,0.796-0.693c0.089,0,0.187,0.008,0.276,0.027c0.162,0.033,0.28,0.119,0.367,0.258
			c0.104,0.174,0.196,0.367,0.286,0.547c0.01,0.025,3.056,6.324,3.056,6.324c0.261,0.738,0.922,1.141,1.702,1.145
			c0.769-0.004,1.421-0.406,1.684-1.145c0,0,3.031-6.299,3.044-6.324c0.088-0.18,0.178-0.373,0.283-0.547
			c0.082-0.139,0.203-0.225,0.365-0.258c0.088-0.02,0.184-0.027,0.271-0.027c0.42,0,0.77,0.297,0.797,0.693l0.045,0.416l0.49,4.654
			l0.135,1.857c0,0,0,2.498,2.309,2.121C31.854,20.082,31.473,18.244,31.473,18.244z"/>
	</g>
	<path fill="#FFFFFF" d="M20.117,9.367c-1.175,0-1.783-0.432-2.32-0.807c-0.484-0.344-0.865-0.613-1.705-0.613
		c-0.835,0-1.218,0.27-1.703,0.613c-0.537,0.375-1.144,0.807-2.321,0.807c-1.174,0-1.784-0.432-2.318-0.807
		C9.265,8.217,8.882,7.947,8.046,7.947s-1.219,0.27-1.703,0.613c-0.537,0.375-1.146,0.807-2.32,0.807
		c-1.177,0-1.784-0.432-2.32-0.807C1.218,8.217,0.836,7.947,0,7.947V6.881c1.177,0,1.784,0.426,2.32,0.803
		c0.482,0.346,0.866,0.613,1.702,0.613S5.24,8.029,5.725,7.684c0.537-0.377,1.144-0.803,2.321-0.803s1.783,0.426,2.32,0.803
		c0.484,0.346,0.865,0.613,1.702,0.613c0.838,0,1.221-0.268,1.704-0.613c0.538-0.377,1.145-0.803,2.319-0.803
		c1.178,0,1.785,0.426,2.322,0.803c0.485,0.346,0.868,0.613,1.703,0.613V9.367z"/>
</g>
</svg>
