<?xml version="1.0" encoding="utf-8"?>
<!-- Generator: Adobe Illustrator 16.0.0, SVG Export Plug-In . SVG Version: 6.00 Build 0)  -->
<!DOCTYPE svg PUBLIC "-//W3C//DTD SVG 1.1//EN" "http://www.w3.org/Graphics/SVG/1.1/DTD/svg11.dtd">
<svg version="1.1" id="Capa_1" xmlns="http://www.w3.org/2000/svg" xmlns:xlink="http://www.w3.org/1999/xlink" x="0px" y="0px"
	 width="95px" height="95px" viewBox="0 0 95 95" enable-background="new 0 0 95 95" xml:space="preserve">
<g>
	<g>
		<circle fill="none" stroke="#FFFFFF" stroke-miterlimit="10" cx="47.5" cy="47.502" r="45.781"/>
		<g>
			<path fill="none" stroke="#FFFFFF" stroke-width="3" stroke-miterlimit="10" d="M11.624,19.127
				c2.167-2.766,4.649-5.278,7.389-7.479"/>
			<path fill="none" stroke="#FFFFFF" stroke-width="3" stroke-miterlimit="10" d="M19.078,83.294
				c-2.611-2.094-4.989-4.463-7.085-7.07"/>
			<path fill="none" stroke="#FFFFFF" stroke-width="3" stroke-miterlimit="10" d="M83.184,76.246
				c-2.139,2.626-4.564,5.013-7.229,7.108"/>
			<path fill="none" stroke="#FFFFFF" stroke-width="3" stroke-miterlimit="10" d="M78.205,13.513
				c1.754,1.599,3.385,3.335,4.871,5.187"/>
		</g>
		<circle fill="#FFFFFF" cx="47.5" cy="47.502" r="36.432"/>
	</g>
	<path fill="#C4D459" d="M42.229,59.911c-0.399,0.397-1.045,0.397-1.445,0v-24.82c0.399-0.398,1.046-0.398,1.445,0l11.687,11.688
		c0.398,0.399,0.398,1.046,0,1.443L42.229,59.911z"/>
</g>
</svg>
