<?xml version="1.0" encoding="utf-8"?>
<!-- Generator: Adobe Illustrator 16.0.0, SVG Export Plug-In . SVG Version: 6.00 Build 0)  -->
<!DOCTYPE svg PUBLIC "-//W3C//DTD SVG 1.1 Tiny//EN" "http://www.w3.org/Graphics/SVG/1.1/DTD/svg11-tiny.dtd">
<svg version="1.1" baseProfile="tiny" id="Capa_1" xmlns="http://www.w3.org/2000/svg" xmlns:xlink="http://www.w3.org/1999/xlink"
	 x="0px" y="0px" width="87px" height="50px" viewBox="0 0 87 50" xml:space="preserve">
<g>
	<polygon fill="#434244" points="4.823,44.098 3.749,44.098 2.083,40.496 2.083,44.098 0.835,44.098 0.835,38.325 2.136,38.325 
		4.278,43.273 6.315,38.325 7.606,38.325 7.606,44.098 6.36,44.098 6.36,40.496 	"/>
	<polygon fill="#434244" points="17.144,39.077 14.354,39.077 14.354,40.657 16.573,40.657 16.573,41.392 14.354,41.392 
		14.354,43.354 17.257,43.354 17.257,44.098 13.101,44.098 13.101,38.325 17.144,38.325 	"/>
	<path fill="#434244" d="M24.278,38.325c0.656,0,1.209,0.078,1.668,0.227c0.451,0.152,0.824,0.352,1.111,0.601
		c0.289,0.267,0.5,0.562,0.639,0.901c0.119,0.344,0.189,0.703,0.189,1.086c0,0.272-0.035,0.516-0.086,0.771
		c-0.057,0.254-0.143,0.479-0.262,0.705c-0.123,0.221-0.277,0.411-0.467,0.6c-0.191,0.181-0.422,0.33-0.693,0.467
		c-0.271,0.139-0.588,0.234-0.941,0.314c-0.357,0.067-0.756,0.102-1.217,0.102h-1.738v-5.772H24.278z M23.729,39.071v4.29h0.385
		c0.357,0,0.68-0.053,0.98-0.14c0.295-0.091,0.553-0.234,0.773-0.407c0.217-0.191,0.387-0.425,0.51-0.705
		c0.129-0.279,0.189-0.606,0.189-0.981c0-0.263-0.049-0.514-0.133-0.764c-0.078-0.244-0.213-0.467-0.402-0.659
		c-0.184-0.194-0.432-0.345-0.727-0.456c-0.307-0.125-0.674-0.178-1.111-0.178H23.729z"/>
	<polygon fill="#434244" points="37.327,39.077 34.538,39.077 34.538,40.657 36.755,40.657 36.755,41.392 34.538,41.392 
		34.538,43.354 37.442,43.354 37.442,44.098 33.288,44.098 33.288,38.325 37.327,38.325 	"/>
	<polygon fill="#434244" points="46.991,44.098 42.661,44.098 42.661,38.325 43.915,38.325 43.915,43.354 46.991,43.354 	"/>
	<polygon fill="#434244" points="56.304,44.098 51.978,44.098 51.978,38.325 53.229,38.325 53.229,43.354 56.304,43.354 	"/>
	<path fill="#434244" d="M60.981,37.549l1.559-1.58l0.863,0.759l-1.93,1.205L60.981,37.549z M61.294,38.325h1.252v5.772h-1.252
		V38.325z"/>
	<polygon fill="#434244" points="69.218,39.962 69.218,44.098 67.968,44.098 67.968,38.325 69.151,38.325 72.175,42.477 
		72.175,38.325 73.437,38.325 73.45,44.098 72.265,44.098 	"/>
	<path fill="#434244" d="M0.757,15.554v18.211h4.564V15.554c0-2.054,0.959-3.008,3.006-3.008h4.982V7.94H8.327
		C3.298,7.94,0.757,10.502,0.757,15.554 M74.001,18.542v-2.988c0-5.052-2.555-7.613-7.604-7.613H47.405V0.725l-4.576-0.036V7.94
		h-8.502v18.316c0,1.991-0.957,2.911-3.006,2.911h-8.518c-2.057,0-3.004-0.948-3.004-3.002V7.94h-4.57v18.225
		c0,5.054,2.543,7.604,7.564,7.604h8.52c5.057,0,7.611-2.525,7.611-7.512v-13.71h3.904v21.223h4.576V12.546h18.992
		c2.049,0,3.01,0.954,3.01,3.008v2.988h-11.5c-5.045,0-7.6,2.379-7.6,7.089v0.975c0,4.756,2.555,7.162,7.609,7.162h8.477
		c5.051,0,7.607-2.55,7.607-7.604v-3.017h7.541l4.701-4.606H74.001z M69.407,26.165c0,2.054-0.961,3.002-3.014,3.002h-8.477
		c-2.053,0-3.018-0.806-3.018-2.561v-0.983c0-1.691,0.965-2.476,3.008-2.476h11.5V26.165z"/>
	<path fill="#C4D459" d="M85.083,5.299l0.607,0.188c-0.365,0.896-0.789,1.547-1.271,1.978c-0.49,0.419-0.99,0.628-1.486,0.628
		c-0.43,0-0.756-0.117-0.988-0.348c-0.238-0.238-0.354-0.544-0.354-0.928c0-0.345,0.111-0.905,0.326-1.662
		c0.32-1.136,0.508-1.837,0.559-2.102c0.057-0.269,0.094-0.474,0.094-0.648c0-0.172-0.055-0.326-0.137-0.423
		c-0.09-0.097-0.203-0.151-0.34-0.151c-0.232,0-0.498,0.098-0.773,0.304c-0.451,0.33-0.875,0.814-1.283,1.47
		c-0.402,0.654-0.701,1.339-0.9,2.033l-0.646,2.298L76.534,8.02l1.531-5.737c0.01-0.064,0.018-0.124,0.018-0.174
		c0-0.144-0.047-0.248-0.158-0.332c-0.102-0.074-0.299-0.109-0.594-0.109H76.94l0.104-0.692l3.201-0.135l-0.564,2.385
		c1.09-1.653,2.152-2.469,3.197-2.469c0.471,0,0.857,0.144,1.158,0.429c0.301,0.299,0.451,0.667,0.451,1.102
		c0,0.362-0.068,0.793-0.205,1.305L83.61,6.115c-0.127,0.401-0.188,0.653-0.188,0.757c0,0.075,0.025,0.137,0.055,0.161
		c0.039,0.05,0.098,0.061,0.162,0.061c0.166,0,0.346-0.094,0.531-0.286C84.487,6.458,84.79,5.962,85.083,5.299"/>
	<path fill="#FFFFFF" d="M1.665,46.797c0.23,0,0.41,0.047,0.545,0.161c0.123,0.103,0.191,0.247,0.191,0.454
		c0,0.15-0.053,0.284-0.15,0.371c-0.098,0.092-0.199,0.139-0.291,0.164c0.131,0.015,0.26,0.089,0.373,0.201
		c0.123,0.104,0.186,0.275,0.186,0.498c0,0.188-0.078,0.332-0.223,0.445c-0.15,0.118-0.363,0.185-0.637,0.185H0.956v-2.479H1.665z
		 M1.228,47v0.875h0.32c0.16,0,0.297-0.043,0.412-0.115c0.115-0.085,0.176-0.186,0.176-0.315c0-0.157-0.049-0.266-0.137-0.343
		C1.909,47.033,1.745,47,1.521,47H1.228z M1.228,48.08v0.991h0.424c0.176-0.005,0.324-0.049,0.424-0.12
		c0.105-0.08,0.164-0.191,0.164-0.341c0-0.159-0.051-0.284-0.156-0.383C1.979,48.129,1.827,48.08,1.63,48.08H1.228z"/>
	<path fill="#434244" d="M3.741,46.797v1.501c0,0.335,0.057,0.545,0.17,0.641c0.115,0.093,0.279,0.136,0.48,0.136
		c0.225,0,0.389-0.043,0.504-0.136c0.115-0.096,0.174-0.306,0.174-0.62v-1.521h0.266v1.491c0,0.415-0.086,0.69-0.252,0.817
		c-0.158,0.134-0.391,0.206-0.709,0.206c-0.305,0-0.533-0.072-0.68-0.208c-0.143-0.137-0.221-0.402-0.221-0.81v-1.497H3.741z"/>
	<path fill="#434244" d="M6.437,48.768c0.076,0.08,0.166,0.154,0.279,0.217c0.109,0.068,0.232,0.102,0.367,0.102
		c0.166,0,0.293-0.043,0.398-0.113c0.094-0.08,0.145-0.191,0.145-0.328c0-0.14-0.047-0.252-0.131-0.317
		c-0.096-0.06-0.229-0.131-0.406-0.198L6.96,48.076c-0.195-0.068-0.357-0.16-0.486-0.279c-0.131-0.107-0.191-0.257-0.191-0.445
		c0-0.188,0.078-0.344,0.225-0.456c0.145-0.11,0.33-0.163,0.551-0.163c0.174,0,0.311,0.013,0.428,0.073
		c0.115,0.05,0.225,0.124,0.316,0.223l-0.16,0.173c-0.066-0.063-0.145-0.115-0.238-0.168c-0.088-0.055-0.203-0.075-0.338-0.075
		c-0.143,0-0.268,0.032-0.359,0.1c-0.1,0.063-0.152,0.152-0.152,0.271c0,0.127,0.057,0.225,0.168,0.307
		c0.107,0.068,0.215,0.125,0.332,0.171l0.236,0.101c0.236,0.091,0.406,0.188,0.488,0.29c0.086,0.101,0.127,0.246,0.127,0.413
		c0,0.223-0.076,0.398-0.23,0.521c-0.164,0.121-0.355,0.181-0.592,0.181c-0.09,0-0.174-0.013-0.254-0.023
		c-0.084-0.008-0.156-0.024-0.223-0.056c-0.064-0.037-0.135-0.071-0.197-0.111c-0.066-0.049-0.121-0.105-0.172-0.156L6.437,48.768z"
		/>
	<rect x="8.808" y="46.797" fill="#434244" width="0.268" height="2.479"/>
	<polygon fill="#434244" points="10.368,47.239 10.368,49.276 10.101,49.276 10.097,46.797 10.368,46.797 11.599,48.837 
		11.599,46.797 11.868,46.797 11.868,49.276 11.614,49.276 	"/>
	<polygon fill="#434244" points="14.214,47.01 13.163,47.01 13.163,47.857 14.003,47.857 14.003,48.066 13.163,48.066 
		13.163,49.053 14.261,49.053 14.261,49.276 12.894,49.276 12.894,46.797 14.214,46.797 	"/>
	<path fill="#434244" d="M15.274,48.768c0.074,0.08,0.166,0.154,0.277,0.217c0.105,0.068,0.23,0.102,0.371,0.102
		c0.166,0,0.293-0.043,0.393-0.113c0.094-0.08,0.146-0.191,0.146-0.328c0-0.14-0.049-0.252-0.139-0.317
		c-0.086-0.06-0.225-0.131-0.393-0.198l-0.139-0.053c-0.191-0.068-0.352-0.16-0.482-0.279c-0.125-0.107-0.191-0.257-0.191-0.445
		c0-0.188,0.08-0.344,0.221-0.456c0.15-0.11,0.334-0.163,0.555-0.163c0.176,0,0.318,0.013,0.43,0.073
		c0.109,0.05,0.223,0.124,0.313,0.223l-0.156,0.173c-0.07-0.063-0.141-0.115-0.242-0.168c-0.086-0.055-0.201-0.075-0.338-0.075
		c-0.143,0-0.258,0.032-0.357,0.1c-0.096,0.063-0.152,0.152-0.152,0.271c0,0.127,0.063,0.225,0.168,0.307
		c0.109,0.068,0.217,0.125,0.328,0.171l0.24,0.101c0.238,0.091,0.4,0.188,0.494,0.29c0.082,0.101,0.125,0.246,0.125,0.413
		c0,0.223-0.078,0.398-0.238,0.521c-0.158,0.121-0.355,0.181-0.584,0.181c-0.098,0-0.176-0.013-0.256-0.023
		c-0.08-0.008-0.152-0.024-0.221-0.056c-0.074-0.037-0.137-0.071-0.197-0.111c-0.057-0.049-0.121-0.105-0.18-0.156L15.274,48.768z"
		/>
	<path fill="#434244" d="M17.729,48.768c0.072,0.08,0.164,0.154,0.277,0.217c0.107,0.068,0.232,0.102,0.369,0.102
		c0.17,0,0.295-0.043,0.398-0.113c0.092-0.08,0.139-0.191,0.139-0.328c0-0.14-0.043-0.252-0.133-0.317
		c-0.088-0.06-0.221-0.131-0.396-0.198l-0.139-0.053c-0.188-0.068-0.352-0.16-0.477-0.279c-0.129-0.107-0.191-0.257-0.191-0.445
		c0-0.188,0.074-0.344,0.221-0.456c0.146-0.11,0.326-0.163,0.553-0.163c0.174,0,0.314,0.013,0.426,0.073
		c0.113,0.05,0.227,0.124,0.314,0.223l-0.156,0.173c-0.068-0.063-0.145-0.115-0.238-0.168c-0.09-0.055-0.207-0.075-0.34-0.075
		c-0.146,0-0.264,0.032-0.361,0.1c-0.102,0.063-0.146,0.152-0.146,0.271c0,0.127,0.057,0.225,0.166,0.307
		c0.105,0.068,0.217,0.125,0.33,0.171l0.232,0.101c0.242,0.091,0.406,0.188,0.496,0.29c0.082,0.101,0.125,0.246,0.125,0.413
		c0,0.223-0.08,0.398-0.236,0.521c-0.158,0.121-0.355,0.181-0.586,0.181c-0.088,0-0.178-0.013-0.256-0.023
		c-0.076-0.008-0.15-0.024-0.227-0.056c-0.063-0.037-0.129-0.071-0.191-0.111c-0.063-0.049-0.119-0.105-0.172-0.156L17.729,48.768z"
		/>
	<path fill="#434244" d="M22.937,46.797h0.262l0.818,2.479h-0.293l-0.268-0.853H22.62l-0.266,0.853h-0.271L22.937,46.797z
		 M22.681,48.232h0.723l-0.359-1.131L22.681,48.232z"/>
	<polygon fill="#434244" points="25.112,47.239 25.112,49.276 24.847,49.276 24.847,46.797 25.112,46.797 26.347,48.837 
		26.347,46.797 26.616,46.797 26.616,49.276 26.356,49.276 	"/>
	<path fill="#434244" d="M28.169,46.797c0.395,0,0.689,0.104,0.881,0.315c0.197,0.22,0.295,0.501,0.295,0.874
		c0,0.406-0.104,0.735-0.311,0.952c-0.207,0.223-0.494,0.338-0.881,0.338h-0.521v-2.479H28.169z M27.909,47.002v2.064h0.201
		c0.295,0,0.523-0.088,0.689-0.278c0.17-0.179,0.25-0.448,0.25-0.81c0-0.311-0.076-0.561-0.23-0.723
		c-0.158-0.17-0.393-0.254-0.705-0.254H27.909z"/>
	<rect x="32.513" y="46.797" fill="#434244" width="0.27" height="2.479"/>
	<polygon fill="#434244" points="34.073,47.239 34.073,49.276 33.802,49.276 33.802,46.797 34.073,46.797 35.3,48.837 35.3,46.797 
		35.575,46.797 35.575,49.276 35.313,49.276 	"/>
	<polygon fill="#434244" points="36.864,47.239 36.864,49.276 36.597,49.276 36.597,46.797 36.864,46.797 38.095,48.837 
		38.095,46.797 38.362,46.797 38.362,49.276 38.106,49.276 	"/>
	<path fill="#434244" d="M40.452,49.312c-0.352,0-0.623-0.124-0.813-0.362s-0.281-0.568-0.281-0.965
		c0-0.371,0.102-0.656,0.316-0.898c0.211-0.24,0.48-0.354,0.791-0.354c0.35,0,0.611,0.113,0.801,0.354
		c0.184,0.242,0.279,0.558,0.279,0.945c0,0.361-0.105,0.67-0.311,0.918C41.024,49.188,40.763,49.312,40.452,49.312 M40.466,49.086
		c0.201,0,0.383-0.102,0.549-0.287c0.166-0.189,0.248-0.473,0.248-0.837c0-0.234-0.066-0.468-0.195-0.675
		c-0.129-0.221-0.322-0.329-0.598-0.329c-0.254,0-0.459,0.089-0.602,0.29c-0.156,0.196-0.229,0.441-0.229,0.738
		c0,0.357,0.08,0.623,0.234,0.813C40.034,48.984,40.228,49.086,40.466,49.086"/>
	<polygon fill="#434244" points="43.917,46.797 44.204,46.797 43.39,49.276 43.132,49.276 42.345,46.797 42.642,46.797 
		43.276,48.881 	"/>
	<path fill="#434244" d="M45.7,46.797h0.256l0.826,2.479h-0.299l-0.262-0.853h-0.836l-0.273,0.853h-0.266L45.7,46.797z
		 M45.438,48.232h0.727l-0.361-1.131L45.438,48.232z"/>
	<polygon fill="#434244" points="49.226,47.018 48.46,47.018 48.46,49.276 48.192,49.276 48.192,47.018 47.421,47.018 
		47.421,46.797 49.226,46.797 	"/>
	<rect x="50.062" y="46.797" fill="#434244" width="0.268" height="2.479"/>
	<path fill="#434244" d="M52.415,49.312c-0.35,0-0.617-0.124-0.809-0.362c-0.189-0.238-0.279-0.568-0.279-0.965
		c0-0.371,0.102-0.656,0.316-0.898c0.213-0.24,0.475-0.354,0.797-0.354c0.336,0,0.6,0.113,0.791,0.354
		c0.186,0.242,0.283,0.558,0.283,0.945c0,0.361-0.105,0.67-0.314,0.918C52.995,49.188,52.733,49.312,52.415,49.312 M52.433,49.086
		c0.203,0,0.387-0.102,0.549-0.287c0.164-0.189,0.242-0.473,0.242-0.837c0-0.234-0.063-0.468-0.186-0.675
		c-0.127-0.221-0.328-0.329-0.598-0.329c-0.26,0-0.463,0.089-0.613,0.29c-0.141,0.196-0.221,0.441-0.221,0.738
		c0,0.357,0.08,0.623,0.238,0.813C51.995,48.984,52.192,49.086,52.433,49.086"/>
	<polygon fill="#434244" points="54.772,47.239 54.772,49.276 54.497,49.276 54.497,46.797 54.772,46.797 56.001,48.837 
		56.001,46.797 56.272,46.797 56.272,49.276 56.011,49.276 	"/>
	<path fill="#434244" d="M61.265,48.914c-0.078,0.108-0.176,0.207-0.305,0.281c-0.117,0.081-0.285,0.116-0.504,0.116
		c-0.309,0-0.559-0.125-0.742-0.362c-0.18-0.238-0.273-0.557-0.273-0.941c0-0.353,0.09-0.656,0.271-0.906
		c0.17-0.246,0.424-0.369,0.773-0.369c0.145,0,0.27,0.01,0.375,0.057c0.113,0.04,0.219,0.111,0.32,0.219l-0.176,0.178
		c-0.068-0.08-0.156-0.139-0.242-0.176c-0.088-0.034-0.184-0.052-0.291-0.052c-0.236,0-0.424,0.097-0.547,0.301
		c-0.135,0.201-0.201,0.438-0.201,0.717c0,0.351,0.076,0.63,0.223,0.821c0.15,0.186,0.316,0.289,0.508,0.289
		c0.178,0,0.309-0.033,0.393-0.089c0.09-0.059,0.158-0.137,0.229-0.229L61.265,48.914z"/>
	<polygon fill="#434244" points="63.491,47.01 62.437,47.01 62.437,47.857 63.282,47.857 63.282,48.066 62.437,48.066 
		62.437,49.053 63.536,49.053 63.536,49.276 62.163,49.276 62.163,46.797 63.491,46.797 	"/>
	<polygon fill="#434244" points="64.737,47.239 64.737,49.276 64.47,49.276 64.47,46.797 64.737,46.797 65.97,48.837 65.97,46.797 
		66.237,46.797 66.237,49.276 65.979,49.276 	"/>
	<polygon fill="#434244" points="68.878,47.018 68.108,47.018 68.108,49.276 67.843,49.276 67.843,47.018 67.071,47.018 
		67.071,46.797 68.878,46.797 	"/>
	<polygon fill="#434244" points="71.036,47.01 69.985,47.01 69.985,47.857 70.827,47.857 70.827,48.066 69.985,48.066 
		69.985,49.053 71.089,49.053 71.089,49.276 69.716,49.276 69.716,46.797 71.036,46.797 	"/>
	<path fill="#434244" d="M72.286,49.276h-0.273v-2.479h0.672c0.266,0,0.463,0.059,0.598,0.182c0.137,0.123,0.203,0.295,0.203,0.525
		c0,0.143-0.055,0.293-0.158,0.409c-0.102,0.122-0.225,0.199-0.359,0.245l0.691,1.118h-0.32l-0.635-1.066h-0.418V49.276z
		 M72.286,48.008h0.262c0.205,0,0.371-0.046,0.484-0.144c0.115-0.097,0.178-0.22,0.178-0.37c0-0.166-0.055-0.295-0.15-0.377
		c-0.096-0.07-0.256-0.115-0.473-0.115h-0.301V48.008z"/>
</g>
</svg>
