<?xml version="1.0" encoding="utf-8"?>
<!-- Generator: Adobe Illustrator 16.0.0, SVG Export Plug-In . SVG Version: 6.00 Build 0)  -->
<!DOCTYPE svg PUBLIC "-//W3C//DTD SVG 1.1//EN" "http://www.w3.org/Graphics/SVG/1.1/DTD/svg11.dtd">
<svg version="1.1" id="Capa_1" xmlns="http://www.w3.org/2000/svg" xmlns:xlink="http://www.w3.org/1999/xlink" x="0px" y="0px"
	 width="88px" height="52px" viewBox="0 0 88 52" enable-background="new 0 0 88 52" xml:space="preserve">
<g>
	<polygon fill="#FFFFFF" points="5.325,45.097 4.25,45.097 2.584,41.496 2.584,45.097 1.335,45.097 1.335,39.324 2.637,39.324 
		4.779,44.272 6.816,39.324 8.107,39.324 8.107,45.097 6.86,45.097 6.86,41.496 	"/>
	<polygon fill="#FFFFFF" points="17.645,40.078 14.856,40.078 14.856,41.657 17.074,41.657 17.074,42.392 14.856,42.392 
		14.856,44.355 17.758,44.355 17.758,45.097 13.602,45.097 13.602,39.324 17.645,39.324 	"/>
	<path fill="#FFFFFF" d="M24.779,39.324c0.656,0,1.209,0.08,1.667,0.228c0.452,0.153,0.826,0.351,1.111,0.601
		c0.29,0.267,0.501,0.563,0.639,0.902c0.12,0.342,0.19,0.701,0.19,1.084c0,0.273-0.034,0.518-0.087,0.771
		c-0.055,0.252-0.142,0.479-0.26,0.704c-0.123,0.222-0.278,0.412-0.467,0.602c-0.191,0.179-0.423,0.329-0.694,0.466
		c-0.271,0.139-0.587,0.233-0.941,0.314c-0.357,0.068-0.757,0.102-1.216,0.102h-1.738v-5.773H24.779z M24.231,40.072v4.289h0.383
		c0.358,0,0.68-0.052,0.981-0.141c0.295-0.09,0.553-0.234,0.774-0.408c0.217-0.189,0.387-0.424,0.509-0.702
		c0.128-0.279,0.189-0.606,0.189-0.983c0-0.262-0.047-0.514-0.132-0.762c-0.079-0.246-0.213-0.47-0.403-0.66
		c-0.184-0.193-0.432-0.346-0.726-0.457c-0.306-0.125-0.673-0.176-1.111-0.176H24.231z"/>
	<polygon fill="#FFFFFF" points="37.827,40.078 35.039,40.078 35.039,41.657 37.256,41.657 37.256,42.392 35.039,42.392 
		35.039,44.355 37.943,44.355 37.943,45.097 33.79,45.097 33.79,39.324 37.827,39.324 	"/>
	<polygon fill="#FFFFFF" points="47.492,45.097 43.162,45.097 43.162,39.324 44.416,39.324 44.416,44.355 47.492,44.355 	"/>
	<polygon fill="#FFFFFF" points="56.805,45.097 52.478,45.097 52.478,39.324 53.73,39.324 53.73,44.355 56.805,44.355 	"/>
	<path fill="#FFFFFF" d="M61.481,38.549l1.56-1.58l0.862,0.76l-1.929,1.204L61.481,38.549z M61.795,39.324h1.252v5.772h-1.252
		V39.324z"/>
	<polygon fill="#FFFFFF" points="69.719,40.961 69.719,45.098 68.469,45.098 68.469,39.324 69.652,39.324 72.676,43.475 
		72.676,39.324 73.938,39.324 73.951,45.098 72.766,45.098 	"/>
	<path fill="#FFFFFF" d="M1.257,16.553v18.212h4.565V16.553c0-2.053,0.959-3.007,3.006-3.007h4.981V8.94H8.829
		C3.798,8.94,1.257,11.502,1.257,16.553 M74.502,19.542v-2.989c0-5.051-2.555-7.613-7.604-7.613H47.906V1.725L43.33,1.688V8.94
		h-8.501v18.315c0,1.99-0.957,2.911-3.006,2.911h-8.518c-2.056,0-3.004-0.948-3.004-3.002V8.94h-4.571v18.224
		c0,5.054,2.543,7.605,7.565,7.605h8.52c5.056,0,7.61-2.527,7.61-7.514V13.546h3.905V34.77h4.577V13.546h18.992
		c2.049,0,3.009,0.954,3.009,3.007v2.989H58.408c-5.046,0-7.601,2.378-7.601,7.09v0.976c0,4.755,2.555,7.162,7.61,7.162h8.477
		c5.051,0,7.607-2.551,7.607-7.605v-3.016h7.541l4.7-4.606H74.502z M69.907,27.165c0,2.054-0.96,3.002-3.013,3.002h-8.477
		c-2.053,0-3.019-0.808-3.019-2.56v-0.984c0-1.692,0.966-2.475,3.009-2.475h11.499V27.165z"/>
	<path fill="#FFFFFF" d="M85.585,6.301l0.606,0.187c-0.365,0.895-0.789,1.546-1.272,1.976c-0.489,0.419-0.989,0.629-1.485,0.629
		c-0.43,0-0.756-0.117-0.988-0.347c-0.238-0.237-0.354-0.545-0.354-0.93c0-0.344,0.11-0.903,0.326-1.661
		c0.319-1.136,0.507-1.835,0.559-2.101c0.057-0.27,0.093-0.476,0.093-0.649c0-0.17-0.054-0.325-0.136-0.422
		c-0.092-0.098-0.203-0.15-0.34-0.15c-0.232,0-0.498,0.097-0.773,0.302c-0.451,0.331-0.875,0.814-1.283,1.469
		c-0.402,0.655-0.7,1.34-0.902,2.035L78.99,8.937L77.035,9.02l1.531-5.736c0.01-0.065,0.019-0.124,0.019-0.175
		c0-0.146-0.048-0.249-0.159-0.333c-0.103-0.074-0.299-0.109-0.594-0.109h-0.391l0.103-0.691l3.202-0.136l-0.565,2.386
		c1.091-1.653,2.153-2.47,3.198-2.47c0.47,0,0.857,0.144,1.158,0.431c0.301,0.297,0.45,0.666,0.45,1.098
		c0,0.364-0.068,0.793-0.203,1.307L84.11,7.114c-0.127,0.401-0.187,0.652-0.187,0.757c0,0.075,0.024,0.138,0.055,0.162
		c0.038,0.05,0.098,0.06,0.161,0.06c0.167,0,0.347-0.094,0.532-0.285C84.987,7.457,85.291,6.961,85.585,6.301"/>
	<path fill="#FFFFFF" d="M2.165,47.797c0.232,0,0.41,0.046,0.545,0.16c0.125,0.103,0.192,0.248,0.192,0.454
		c0,0.151-0.052,0.286-0.151,0.372c-0.098,0.092-0.2,0.14-0.291,0.164c0.132,0.016,0.259,0.09,0.375,0.201
		c0.122,0.103,0.186,0.273,0.186,0.497c0,0.187-0.079,0.333-0.225,0.445c-0.149,0.118-0.361,0.186-0.637,0.186H1.456v-2.479H2.165z
		 M1.729,48v0.875h0.32c0.159,0,0.296-0.043,0.411-0.117c0.115-0.083,0.177-0.183,0.177-0.313c0-0.159-0.048-0.266-0.136-0.345
		C2.409,48.033,2.247,48,2.021,48H1.729z M1.729,49.079v0.993h0.423c0.176-0.006,0.325-0.049,0.423-0.121
		c0.106-0.08,0.164-0.19,0.164-0.34c0-0.16-0.05-0.285-0.155-0.385c-0.104-0.098-0.256-0.147-0.453-0.147H1.729z"/>
	<path fill="#FFFFFF" d="M4.243,47.797v1.502c0,0.334,0.056,0.543,0.169,0.641c0.115,0.092,0.279,0.135,0.48,0.135
		c0.226,0,0.389-0.043,0.505-0.135c0.116-0.098,0.173-0.307,0.173-0.622v-1.521h0.267v1.492c0,0.414-0.086,0.689-0.251,0.815
		c-0.16,0.134-0.393,0.208-0.71,0.208c-0.304,0-0.532-0.074-0.68-0.211c-0.141-0.134-0.221-0.4-0.221-0.809v-1.496H4.243z"/>
	<path fill="#FFFFFF" d="M6.938,49.768c0.075,0.08,0.166,0.154,0.28,0.217c0.108,0.066,0.232,0.102,0.367,0.102
		c0.165,0,0.292-0.042,0.398-0.113c0.094-0.081,0.146-0.19,0.146-0.328c0-0.139-0.047-0.25-0.132-0.316
		c-0.095-0.06-0.228-0.131-0.405-0.199l-0.13-0.053c-0.194-0.067-0.357-0.16-0.485-0.281c-0.131-0.106-0.192-0.256-0.192-0.442
		c0-0.188,0.079-0.345,0.224-0.458c0.145-0.109,0.331-0.162,0.551-0.162c0.174,0,0.311,0.014,0.427,0.072
		c0.117,0.051,0.226,0.125,0.318,0.223l-0.162,0.174c-0.065-0.063-0.144-0.115-0.236-0.168c-0.089-0.055-0.204-0.076-0.339-0.076
		c-0.143,0-0.267,0.031-0.359,0.101c-0.099,0.063-0.151,0.153-0.151,0.271c0,0.127,0.056,0.225,0.167,0.305
		c0.106,0.069,0.215,0.125,0.332,0.172l0.236,0.102c0.237,0.092,0.406,0.189,0.488,0.291c0.086,0.1,0.128,0.246,0.128,0.413
		c0,0.222-0.076,0.397-0.231,0.521c-0.164,0.121-0.355,0.182-0.591,0.182c-0.091,0-0.174-0.012-0.255-0.023
		c-0.083-0.008-0.155-0.025-0.221-0.057c-0.066-0.037-0.135-0.07-0.198-0.111c-0.065-0.049-0.12-0.107-0.172-0.157L6.938,49.768z"/>
	<rect x="9.309" y="47.797" fill="#FFFFFF" width="0.267" height="2.479"/>
	<polygon fill="#FFFFFF" points="10.869,48.238 10.869,50.276 10.602,50.276 10.598,47.797 10.869,47.797 12.099,49.838 
		12.099,47.797 12.368,47.797 12.368,50.276 12.114,50.276 	"/>
	<polygon fill="#FFFFFF" points="14.715,48.01 13.664,48.01 13.664,48.858 14.503,48.858 14.503,49.066 13.664,49.066 
		13.664,50.051 14.761,50.051 14.761,50.276 13.395,50.276 13.395,47.797 14.715,47.797 	"/>
	<path fill="#FFFFFF" d="M15.775,49.768c0.075,0.08,0.166,0.154,0.277,0.217c0.106,0.066,0.23,0.102,0.372,0.102
		c0.167,0,0.293-0.042,0.392-0.113c0.094-0.081,0.147-0.19,0.147-0.328c0-0.139-0.05-0.25-0.139-0.316
		c-0.086-0.06-0.224-0.131-0.394-0.199l-0.138-0.053c-0.192-0.067-0.352-0.16-0.483-0.281c-0.124-0.106-0.19-0.256-0.19-0.442
		c0-0.188,0.08-0.345,0.22-0.458c0.15-0.109,0.333-0.162,0.556-0.162c0.175,0,0.317,0.014,0.429,0.072
		c0.11,0.051,0.222,0.125,0.311,0.223l-0.156,0.174c-0.069-0.063-0.14-0.115-0.241-0.168c-0.086-0.055-0.2-0.076-0.338-0.076
		c-0.143,0-0.258,0.031-0.358,0.101c-0.096,0.063-0.151,0.153-0.151,0.271c0,0.127,0.062,0.225,0.167,0.305
		c0.109,0.069,0.217,0.125,0.33,0.172l0.239,0.102c0.238,0.092,0.401,0.189,0.494,0.291c0.082,0.1,0.125,0.246,0.125,0.413
		c0,0.222-0.077,0.397-0.238,0.521c-0.159,0.121-0.355,0.182-0.583,0.182c-0.098,0-0.176-0.012-0.257-0.023
		c-0.08-0.008-0.151-0.025-0.221-0.057c-0.073-0.037-0.137-0.07-0.196-0.111c-0.057-0.049-0.121-0.107-0.18-0.157L15.775,49.768z"/>
	<path fill="#FFFFFF" d="M18.23,49.768c0.073,0.08,0.165,0.154,0.277,0.217c0.107,0.066,0.232,0.102,0.37,0.102
		c0.169,0,0.294-0.042,0.398-0.113c0.092-0.081,0.139-0.19,0.139-0.328c0-0.139-0.044-0.25-0.133-0.316
		c-0.088-0.06-0.22-0.131-0.398-0.199l-0.138-0.053c-0.187-0.067-0.351-0.16-0.476-0.281c-0.13-0.106-0.191-0.256-0.191-0.442
		c0-0.188,0.073-0.345,0.22-0.458c0.146-0.109,0.326-0.162,0.553-0.162c0.173,0,0.314,0.014,0.426,0.072
		c0.113,0.051,0.226,0.125,0.313,0.223l-0.155,0.174c-0.068-0.063-0.146-0.115-0.239-0.168c-0.091-0.055-0.208-0.076-0.34-0.076
		c-0.146,0-0.264,0.031-0.362,0.101c-0.101,0.063-0.147,0.153-0.147,0.271c0,0.127,0.058,0.225,0.167,0.305
		c0.104,0.069,0.216,0.125,0.33,0.172l0.232,0.102c0.241,0.092,0.405,0.189,0.495,0.291c0.083,0.1,0.127,0.246,0.127,0.413
		c0,0.222-0.081,0.397-0.238,0.521c-0.157,0.121-0.356,0.182-0.585,0.182c-0.088,0-0.178-0.012-0.257-0.023
		c-0.077-0.008-0.149-0.025-0.226-0.057c-0.063-0.037-0.13-0.07-0.191-0.111c-0.063-0.049-0.119-0.107-0.173-0.157L18.23,49.768z"/>
	<path fill="#FFFFFF" d="M23.438,47.797h0.26l0.82,2.479h-0.295l-0.267-0.854h-0.834l-0.266,0.854h-0.271L23.438,47.797z
		 M23.181,49.233h0.722l-0.359-1.133L23.181,49.233z"/>
	<polygon fill="#FFFFFF" points="25.612,48.238 25.612,50.276 25.347,50.276 25.347,47.797 25.612,47.797 26.848,49.838 
		26.848,47.797 27.116,47.797 27.116,50.276 26.856,50.276 	"/>
	<path fill="#FFFFFF" d="M28.67,47.797c0.395,0,0.69,0.104,0.88,0.316c0.197,0.219,0.294,0.5,0.294,0.872
		c0,0.409-0.103,0.737-0.31,0.954c-0.206,0.223-0.494,0.336-0.881,0.336h-0.52v-2.479H28.67z M28.41,48.003v2.063h0.201
		c0.295,0,0.523-0.088,0.689-0.279c0.171-0.177,0.25-0.446,0.25-0.809c0-0.312-0.075-0.563-0.229-0.723
		c-0.159-0.17-0.395-0.253-0.706-0.253H28.41z"/>
	<rect x="33.013" y="47.797" fill="#FFFFFF" width="0.27" height="2.479"/>
	<polygon fill="#FFFFFF" points="34.573,48.238 34.573,50.276 34.303,50.276 34.303,47.797 34.573,47.797 35.801,49.838 
		35.801,47.797 36.075,47.797 36.075,50.276 35.815,50.276 	"/>
	<polygon fill="#FFFFFF" points="37.365,48.238 37.365,50.276 37.098,50.276 37.098,47.797 37.365,47.797 38.596,49.838 
		38.596,47.797 38.862,47.797 38.862,50.276 38.606,50.276 	"/>
	<path fill="#FFFFFF" d="M40.954,50.313c-0.352,0-0.623-0.125-0.813-0.362c-0.189-0.238-0.282-0.569-0.282-0.966
		c0-0.371,0.103-0.656,0.317-0.898c0.212-0.24,0.481-0.354,0.791-0.354c0.35,0,0.612,0.113,0.801,0.354
		c0.185,0.242,0.278,0.557,0.278,0.945c0,0.361-0.105,0.67-0.311,0.919C41.524,50.188,41.263,50.313,40.954,50.313 M40.966,50.086
		c0.201,0,0.384-0.102,0.549-0.285c0.166-0.19,0.249-0.475,0.249-0.838c0-0.235-0.067-0.471-0.195-0.677
		c-0.129-0.22-0.323-0.329-0.597-0.329c-0.256,0-0.461,0.091-0.604,0.289c-0.156,0.199-0.228,0.442-0.228,0.74
		c0,0.355,0.081,0.624,0.234,0.814C40.535,49.984,40.728,50.086,40.966,50.086"/>
	<polygon fill="#FFFFFF" points="44.418,47.797 44.705,47.797 43.89,50.276 43.632,50.276 42.845,47.797 43.143,47.797 
		43.777,49.881 	"/>
	<path fill="#FFFFFF" d="M46.201,47.797h0.256l0.826,2.479h-0.3l-0.261-0.854h-0.835l-0.274,0.854h-0.266L46.201,47.797z
		 M45.939,49.233h0.727l-0.361-1.133L45.939,49.233z"/>
	<polygon fill="#FFFFFF" points="49.727,48.018 48.96,48.018 48.96,50.275 48.692,50.275 48.692,48.018 47.922,48.018 
		47.922,47.796 49.727,47.796 	"/>
	<rect x="50.563" y="47.797" fill="#FFFFFF" width="0.268" height="2.479"/>
	<path fill="#FFFFFF" d="M52.915,50.313c-0.35,0-0.616-0.125-0.808-0.362c-0.189-0.238-0.279-0.569-0.279-0.966
		c0-0.371,0.102-0.656,0.315-0.898c0.214-0.24,0.475-0.354,0.798-0.354c0.336,0,0.599,0.113,0.791,0.354
		c0.186,0.242,0.283,0.557,0.283,0.945c0,0.361-0.105,0.67-0.314,0.919C53.495,50.188,53.233,50.313,52.915,50.313 M52.933,50.086
		c0.205,0,0.389-0.102,0.55-0.285c0.164-0.19,0.242-0.475,0.242-0.838c0-0.235-0.063-0.471-0.186-0.677
		c-0.127-0.22-0.329-0.329-0.598-0.329c-0.26,0-0.464,0.091-0.613,0.289c-0.141,0.199-0.221,0.442-0.221,0.74
		c0,0.355,0.08,0.624,0.238,0.814C52.496,49.984,52.693,50.086,52.933,50.086"/>
	<polygon fill="#FFFFFF" points="55.273,48.238 55.273,50.276 54.997,50.276 54.997,47.797 55.273,47.797 56.502,49.838 
		56.502,47.797 56.772,47.797 56.772,50.276 56.51,50.276 	"/>
	<path fill="#FFFFFF" d="M61.765,49.914c-0.077,0.109-0.175,0.207-0.304,0.281c-0.117,0.08-0.286,0.117-0.504,0.117
		c-0.31,0-0.559-0.125-0.742-0.362c-0.181-0.238-0.274-0.558-0.274-0.941c0-0.354,0.091-0.656,0.271-0.908
		c0.171-0.245,0.423-0.368,0.773-0.368c0.145,0,0.271,0.008,0.376,0.057c0.113,0.041,0.219,0.111,0.32,0.219l-0.176,0.177
		c-0.069-0.081-0.156-0.137-0.242-0.175c-0.089-0.035-0.184-0.053-0.291-0.053c-0.237,0-0.424,0.099-0.547,0.301
		c-0.136,0.202-0.201,0.439-0.201,0.717c0,0.352,0.076,0.633,0.222,0.821c0.151,0.187,0.316,0.29,0.509,0.29
		c0.178,0,0.309-0.035,0.393-0.09c0.089-0.057,0.158-0.136,0.228-0.229L61.765,49.914z"/>
	<polygon fill="#FFFFFF" points="63.992,48.01 62.938,48.01 62.938,48.858 63.783,48.858 63.783,49.066 62.938,49.066 
		62.938,50.051 64.037,50.051 64.037,50.276 62.664,50.276 62.664,47.797 63.992,47.797 	"/>
	<polygon fill="#FFFFFF" points="65.238,48.238 65.238,50.276 64.971,50.276 64.971,47.797 65.238,47.797 66.471,49.838 
		66.471,47.797 66.738,47.797 66.738,50.276 66.48,50.276 	"/>
	<polygon fill="#FFFFFF" points="69.379,48.018 68.609,48.018 68.609,50.275 68.344,50.275 68.344,48.018 67.571,48.018 
		67.571,47.796 69.379,47.796 	"/>
	<polygon fill="#FFFFFF" points="71.537,48.01 70.487,48.01 70.487,48.858 71.328,48.858 71.328,49.066 70.487,49.066 
		70.487,50.051 71.59,50.051 71.59,50.276 70.217,50.276 70.217,47.797 71.537,47.797 	"/>
	<path fill="#FFFFFF" d="M72.787,50.275h-0.273v-2.479h0.672c0.267,0,0.463,0.059,0.598,0.182c0.136,0.122,0.203,0.297,0.203,0.525
		c0,0.143-0.056,0.291-0.158,0.41c-0.103,0.12-0.225,0.199-0.359,0.244l0.691,1.117h-0.32l-0.635-1.064h-0.418V50.275z
		 M72.787,49.009h0.262c0.205,0,0.37-0.046,0.484-0.144c0.115-0.098,0.178-0.221,0.178-0.373c0-0.164-0.056-0.293-0.15-0.374
		c-0.097-0.07-0.257-0.115-0.473-0.115h-0.301V49.009z"/>
</g>
</svg>
