<?xml version="1.0" encoding="utf-8"?>
<!-- Generator: Adobe Illustrator 16.0.0, SVG Export Plug-In . SVG Version: 6.00 Build 0)  -->
<!DOCTYPE svg PUBLIC "-//W3C//DTD SVG 1.1 Tiny//EN" "http://www.w3.org/Graphics/SVG/1.1/DTD/svg11-tiny.dtd">
<svg version="1.1" baseProfile="tiny" id="Capa_1" xmlns="http://www.w3.org/2000/svg" xmlns:xlink="http://www.w3.org/1999/xlink"
	 x="0px" y="0px" width="1369.736px" height="53.938px" viewBox="0 0 1369.736 53.938" xml:space="preserve">
<g>
	<polygon fill="#FFFFFF" points="45.954,38.175 8.45,41.857 45.954,38.176 	"/>
	<polygon fill="#FFFFFF" points="46.351,38.295 46.644,38.108 46.577,38.115 46.342,38.288 	"/>
	<rect x="33.958" y="31.824" fill="#FFFFFF" width="0" height="28.758"/>
	<rect x="22.813" y="17.774" fill="#FFFFFF" width="0.002" height="45.849"/>
	<polygon fill="#FFFFFF" points="509.945,11.379 476.044,40.556 509.946,11.379 	"/>
	
		<rect x="459.251" y="33.505" transform="matrix(0.7049 -0.7093 0.7093 0.7049 120.27 356.0807)" fill="#FFFFFF" width="57.612" height="0"/>
	<rect x="489.327" y="2.474" fill="#FFFFFF" width="0" height="60.215"/>
	<polygon fill="#FFFFFF" points="151.03,41.032 164.878,29.417 164.878,29.416 	"/>
	<polygon fill="#FFFFFF" points="105.881,0 165.244,28.784 165.283,28.751 165.192,28.668 165.326,28.649 165.306,28.536 106.454,0 
			"/>
	<polygon fill="#FFFFFF" points="101.194,53.938 101.194,53.938 101.192,51.206 	"/>
	<polygon fill="#FFFFFF" points="101.444,53.938 101.444,53.938 101.426,21 	"/>
	<rect x="72.004" y="-13.067" fill="#FFFFFF" width="0.005" height="64.261"/>
	
		<rect x="43.772" y="46.317" transform="matrix(-0.7801 -0.6257 0.6257 -0.7801 70.6235 117.4559)" fill="#FFFFFF" width="24.362" height="0"/>
	<polygon fill="#FFFFFF" points="101.415,0 101.165,0 101.192,51.206 101.194,53.938 101.444,53.938 101.426,21 	"/>
	<polygon fill="#FFFFFF" points="46.342,38.288 65.855,53.938 65.855,53.938 46.351,38.295 46.342,38.288 	"/>
	<polygon fill="#FFFFFF" points="0,38.275 40.522,30.503 0,38.275 	"/>
	<polygon fill="#FFFFFF" points="97.167,0 96.64,0 40.482,30.248 40.834,30.335 	"/>
	<polygon fill="#FFFFFF" points="0,38.02 0,38.02 13.34,35.461 	"/>
	<polygon fill="#FFFFFF" points="45.98,38.236 45.954,38.176 8.45,41.857 0,42.687 0,42.938 45.63,38.458 	"/>
	<polygon fill="#FFFFFF" points="46.145,38.13 46.193,38.099 46.239,38.206 46.342,38.288 46.342,38.288 46.577,38.115 98.294,0 
		97.873,0 46.14,38.126 	"/>
	<polygon fill="#FFFFFF" points="192.614,53.938 192.614,53.938 178.02,40.489 	"/>
	<rect x="167.84" y="28.908" fill="#FFFFFF" width="0" height="25.22"/>
	<polygon fill="#FFFFFF" points="165.399,28.639 165.449,28.564 165.285,28.413 165.306,28.536 165.326,28.649 	"/>
	<rect x="381.955" y="-3.365" fill="#FFFFFF" width="0.001" height="61.913"/>
	<polygon fill="#FFFFFF" points="365.716,2.157 378.781,36.976 365.716,2.156 	"/>
	<polygon fill="#FFFFFF" points="365.362,0.501 365.174,0 365.154,0 365.278,0.863 365.321,0.875 	"/>
	<polygon fill="#FFFFFF" points="365.639,1.618 373.146,53.938 373.146,53.938 365.716,2.157 365.716,2.156 378.781,36.976 
		385.146,53.938 385.413,53.938 366.002,2.208 	"/>
	<polygon fill="#FFFFFF" points="365.436,0.908 365.535,0.895 365.413,0.042 365.362,0.501 365.321,0.875 	"/>
	<polygon fill="#FFFFFF" points="365.639,1.618 365.513,1.414 359.716,53.938 359.716,53.938 365.445,2.028 372.893,53.938 
		373.146,53.938 	"/>
	<polygon fill="#FFFFFF" points="350.599,53.938 363.69,7.642 350.599,53.938 	"/>
	<polygon fill="#FFFFFF" points="365.513,1.414 365.471,1.346 365.139,2.518 359.465,53.938 359.716,53.938 	"/>
	<polygon fill="#FFFFFF" points="165.604,28.784 165.659,29.098 165.659,29.098 178.02,40.489 192.614,53.938 192.983,53.938 
		165.751,28.843 365.256,1.185 350.339,53.938 350.599,53.938 363.69,7.642 365.139,2.518 365.471,1.346 365.219,0.938 
		165.731,28.593 	"/>
	<polygon fill="#FFFFFF" points="165.377,28.671 165.399,28.639 165.326,28.649 165.192,28.668 165.283,28.751 	"/>
	<polygon fill="#FFFFFF" points="365.436,0.908 365.583,0.95 365.601,0.885 365.535,0.895 	"/>
	<polygon fill="#FFFFFF" points="510.942,10.852 511.478,10.39 510.86,10.678 510.846,10.81 	"/>
	<polygon fill="#FFFFFF" points="365.471,1.346 365.513,1.414 365.639,1.618 366.002,2.208 397.914,53.938 398.208,53.938 
		365.701,1.243 365.705,1.244 468.786,30.501 468.831,30.514 509.945,11.379 509.946,11.379 476.044,40.556 460.496,53.938 
		460.879,53.938 508.362,13.072 508.363,13.071 510.593,10.827 510.596,10.801 468.81,30.248 365.583,0.95 365.436,0.908 
		365.321,0.875 365.278,0.863 365.15,0.827 365.219,0.938 	"/>
	<polygon fill="#FFFFFF" points="506.19,53.938 510.69,12.256 506.189,53.938 	"/>
	<polygon fill="#FFFFFF" points="510.593,10.827 508.363,13.071 467.752,53.938 468.104,53.938 510.549,11.226 510.549,11.226 
		505.938,53.938 505.938,53.938 	"/>
	<polygon fill="#FFFFFF" points="510.846,10.81 510.86,10.678 510.875,10.544 510.681,10.739 	"/>
	<polygon fill="#FFFFFF" points="165.399,28.639 165.377,28.671 165.558,28.521 165.541,28.427 165.449,28.564 	"/>
	<polygon fill="#FFFFFF" points="165.604,28.784 165.576,28.825 165.402,29.084 169.767,53.938 170.021,53.938 165.659,29.098 	"/>
	<polygon fill="#FFFFFF" points="165.377,28.671 165.283,28.751 165.244,28.784 135.254,53.938 135.644,53.938 151.03,41.032 
		164.878,29.416 164.878,29.417 148.446,53.938 148.748,53.938 165.402,29.084 165.576,28.825 165.604,28.784 165.731,28.593 
		166.065,28.095 165.558,28.521 	"/>
	<polygon fill="#FFFFFF" points="46.08,38.468 46.08,38.468 46.08,38.468 52.733,53.938 52.734,53.938 	"/>
	<polygon fill="#FFFFFF" points="46.342,38.288 46.239,38.206 46.251,38.234 46.45,38.695 65.456,53.938 65.855,53.938 	"/>
	<polygon fill="#FFFFFF" points="45.98,38.236 46.145,38.13 46.14,38.126 46.14,38.126 45.824,37.873 45.954,38.175 45.954,38.176 	
		"/>
	<polygon fill="#FFFFFF" points="46.251,38.234 46.239,38.206 46.193,38.099 46.145,38.13 45.98,38.236 45.63,38.458 45.628,38.459 
		21.372,53.938 21.836,53.938 46.08,38.468 46.08,38.468 52.734,53.938 53.006,53.938 46.45,38.696 46.45,38.695 	"/>
	<polygon fill="#FFFFFF" points="39.916,30.365 13.34,35.461 0,38.02 0,38.275 40.522,30.503 41.082,30.396 40.834,30.335 
		40.482,30.248 0,20.236 0,20.494 	"/>
	<polygon fill="#FFFFFF" points="551.812,53.938 552.089,53.938 555.796,46.241 555.396,46.497 	"/>
	<polygon fill="#FFFFFF" points="510.593,10.827 505.938,53.938 506.189,53.938 510.69,12.256 510.818,11.07 555.849,30.463 
		555.849,45.556 555.602,46.069 556.003,45.813 556.086,45.639 556.099,30.299 510.942,10.852 510.846,10.81 510.681,10.739 
		510.606,10.707 510.596,10.801 	"/>
	
		<rect x="974.499" y="32.658" transform="matrix(0.758 -0.6523 0.6523 0.758 222.4666 664.8585)" fill="#FFFFFF" width="65.243" height="0.001"/>
	<polygon fill="#FFFFFF" points="990.005,53.938 1011.068,32.742 990.004,53.938 	"/>
	<polygon fill="#FFFFFF" points="989.651,53.938 989.651,53.938 1004.773,38.721 	"/>
	<polygon fill="#FFFFFF" points="623.343,53.938 623.326,21 623.343,53.938 	"/>
	<polygon fill="#FFFFFF" points="623.093,53.938 623.093,53.938 623.091,51.184 	"/>
	<polygon fill="#FFFFFF" points="673.266,40.75 686.777,29.417 686.778,29.416 	"/>
	<polygon fill="#FFFFFF" points="627.781,0 687.143,28.784 687.182,28.751 687.092,28.668 687.226,28.649 687.206,28.536 628.354,0 
			"/>
	<polygon fill="#FFFFFF" points="623.064,0 623.091,51.184 623.093,53.938 623.343,53.938 623.326,21 623.314,0 	"/>
	
		<rect x="565.669" y="46.317" transform="matrix(-0.7801 -0.6256 0.6256 -0.7801 999.6591 443.9771)" fill="#FFFFFF" width="24.362" height="0"/>
	<polygon fill="#FFFFFF" points="568.091,38.099 568.137,38.206 587.753,53.938 587.753,53.938 568.239,38.288 620.189,0 619.769,0 
		568.038,38.126 568.042,38.13 	"/>
	<polygon fill="#FFFFFF" points="714.514,53.938 714.514,53.938 699.919,40.489 	"/>
	<rect x="689.739" y="28.908" fill="#FFFFFF" width="0" height="25.22"/>
	<polygon fill="#FFFFFF" points="687.298,28.639 687.348,28.564 687.184,28.413 687.206,28.536 687.226,28.649 	"/>
	<rect x="903.854" y="-3.365" fill="#FFFFFF" width="0.002" height="61.912"/>
	<polygon fill="#FFFFFF" points="887.616,2.158 901.379,38.838 887.615,2.158 	"/>
	<polygon fill="#FFFFFF" points="905.447,48.968 887.904,2.214 887.903,2.212 	"/>
	<polygon fill="#FFFFFF" points="887.261,0.5 887.073,0 887.054,0 887.178,0.864 887.22,0.875 	"/>
	
		<rect x="864.849" y="27.984" transform="matrix(-0.142 -0.9899 0.9899 -0.142 989.9138 913.9949)" fill="#FFFFFF" width="52.44" height="0"/>
	<polygon fill="#FFFFFF" points="887.539,1.622 887.615,2.158 901.379,38.838 907.045,53.938 907.313,53.938 905.447,48.968 
		887.903,2.212 	"/>
	
		<rect x="858.337" y="28.23" transform="matrix(0.1097 -0.994 0.994 0.1097 759.1398 903.9975)" fill="#FFFFFF" width="51.728" height="0.001"/>
	<polygon fill="#FFFFFF" points="887.334,0.908 887.435,0.895 887.312,0.042 887.261,0.5 887.22,0.875 	"/>
	<polygon fill="#FFFFFF" points="887.539,1.622 887.412,1.416 881.615,53.938 881.615,53.938 887.345,2.03 887.345,2.028 
		894.792,53.938 895.045,53.938 887.616,2.158 887.615,2.158 	"/>
	
		<rect x="852.287" y="27.561" transform="matrix(0.2721 -0.9623 0.9623 0.2721 613.8019 866.5652)" fill="#FFFFFF" width="54.822" height="0"/>
	<polygon fill="#FFFFFF" points="887.412,1.416 887.37,1.347 872.499,53.938 872.499,53.938 887.038,2.522 887.039,2.518 
		881.364,53.938 881.615,53.938 	"/>
	<polygon fill="#FFFFFF" points="687.503,28.784 687.558,29.098 687.558,29.098 699.919,40.489 714.514,53.938 714.882,53.938 
		687.65,28.843 887.156,1.185 887.156,1.185 872.239,53.938 872.499,53.938 887.37,1.347 887.117,0.938 687.631,28.593 	"/>
	<polygon fill="#FFFFFF" points="687.277,28.671 687.298,28.639 687.226,28.649 687.092,28.668 687.182,28.751 	"/>
	<polygon fill="#FFFFFF" points="887.334,0.908 887.481,0.95 887.5,0.885 887.435,0.895 	"/>
	<polygon fill="#FFFFFF" points="1032.842,10.852 1033.377,10.391 1032.759,10.678 1032.745,10.81 	"/>
	<polygon fill="#FFFFFF" points="887.37,1.347 887.412,1.416 887.539,1.622 887.903,2.212 887.904,2.214 919.813,53.938 
		920.106,53.938 887.6,1.243 887.604,1.245 990.685,30.501 990.729,30.514 1031.846,11.379 1031.846,11.379 982.396,53.938 
		982.778,53.938 1030.257,13.077 1032.492,10.827 1032.495,10.801 990.708,30.248 887.481,0.95 887.334,0.908 887.22,0.875 
		887.178,0.864 887.049,0.827 887.117,0.938 	"/>
	<polygon fill="#FFFFFF" points="1032.492,10.827 1030.257,13.077 1004.773,38.721 989.651,53.938 990.004,53.938 1011.068,32.742 
		1032.449,11.226 	"/>
	<polygon fill="#FFFFFF" points="1032.661,10.773 1032.745,10.81 1032.759,10.678 1032.773,10.544 1032.58,10.739 	"/>
	<polygon fill="#FFFFFF" points="687.298,28.639 687.277,28.671 687.457,28.521 687.44,28.427 687.348,28.564 	"/>
	<polygon fill="#FFFFFF" points="687.503,28.784 687.475,28.825 687.302,29.084 691.666,53.938 691.92,53.938 687.558,29.098 	"/>
	<polygon fill="#FFFFFF" points="687.277,28.671 687.182,28.751 687.143,28.784 657.153,53.938 657.542,53.938 673.266,40.75 
		686.778,29.416 686.777,29.417 670.346,53.938 670.647,53.938 687.302,29.084 687.475,28.825 687.503,28.784 687.631,28.593 
		687.964,28.095 687.457,28.521 	"/>
	
		<rect x="562.884" y="46.203" transform="matrix(-0.3951 -0.9186 0.9186 -0.3951 754.5943 589.2762)" fill="#FFFFFF" width="16.84" height="0"/>
	<polygon fill="#FFFFFF" points="568.042,38.13 568.038,38.126 567.721,37.873 567.877,38.236 	"/>
	<polygon fill="#FFFFFF" points="568.149,38.234 568.347,38.695 587.353,53.938 587.753,53.938 568.137,38.206 	"/>
	<polygon fill="#FFFFFF" points="543.27,53.938 543.734,53.938 555.396,46.497 555.796,46.241 567.978,38.468 567.978,38.468 
		574.631,53.938 574.904,53.938 568.348,38.696 568.347,38.695 568.149,38.234 568.137,38.206 568.091,38.099 568.042,38.13 
		567.877,38.236 556.003,45.813 555.602,46.069 	"/>
	<polygon fill="#FFFFFF" points="1073.709,53.938 1073.986,53.938 1075.906,49.953 1075.506,50.208 	"/>
	<polygon fill="#FFFFFF" points="1032.492,10.827 1032.449,11.226 1027.838,53.938 1028.09,53.938 1032.718,11.07 1077.746,30.463 
		1077.746,45.556 1075.712,49.78 1076.112,49.524 1077.983,45.639 1077.996,30.299 1032.842,10.852 1032.745,10.81 1032.661,10.773 
		1032.58,10.739 1032.505,10.707 1032.495,10.801 	"/>
	<polygon fill="#FFFFFF" points="1149.268,53.938 1149.268,53.938 1149.251,21 	"/>
	<polygon fill="#FFFFFF" points="1149.018,53.938 1149.018,53.938 1149.017,51.206 	"/>
	<polygon fill="#FFFFFF" points="1153.706,0 1213.069,28.784 1213.108,28.751 1213.019,28.668 1213.152,28.649 1213.132,28.536 
		1154.279,0 	"/>
	
		<rect x="1091.596" y="46.317" transform="matrix(-0.7801 -0.6257 0.6257 -0.7801 1935.8376 773.0504)" fill="#FFFFFF" width="24.361" height="0"/>
	<polygon fill="#FFFFFF" points="1149.24,0 1148.99,0 1149.017,51.206 1149.018,53.938 1149.268,53.938 1149.251,21 	"/>
	<polygon fill="#FFFFFF" points="1094.017,38.099 1094.063,38.207 1113.679,53.938 1113.679,53.938 1094.165,38.288 1146.115,0 
		1145.694,0 1093.963,38.125 1093.969,38.13 	"/>
	<polygon fill="#FFFFFF" points="1238.229,51.561 1213.577,28.843 1213.577,28.843 	"/>
	
		<rect x="1208.634" y="41.518" transform="matrix(-0.7354 -0.6777 0.6777 -0.7354 2101.0991 903.5179)" fill="#FFFFFF" width="36.655" height="0"/>
	
		<rect x="1202.793" y="41.511" transform="matrix(-0.1729 -0.9849 0.9849 -0.1729 1384.73 1245.7855)" fill="#FFFFFF" width="25.234" height="0"/>
	<polygon fill="#FFFFFF" points="1213.226,28.639 1213.275,28.564 1213.11,28.413 1213.132,28.536 1213.152,28.649 	"/>
	<polygon fill="#FFFFFF" points="1213.43,28.783 1213.484,29.098 1240.439,53.938 1240.809,53.938 1238.229,51.561 1213.577,28.843 
		1213.577,28.843 1364.6,7.906 1364.6,7.654 1213.557,28.593 	"/>
	<polygon fill="#FFFFFF" points="1213.204,28.67 1213.226,28.639 1213.152,28.649 1213.019,28.668 1213.108,28.751 	"/>
	
		<rect x="1189.73" y="41.677" transform="matrix(0.5567 -0.8307 0.8307 0.5567 499.3557 1019.0807)" fill="#FFFFFF" width="29.517" height="0"/>
	<polygon fill="#FFFFFF" points="1213.226,28.639 1213.204,28.67 1213.384,28.52 1213.367,28.427 1213.275,28.564 	"/>
	<polygon fill="#FFFFFF" points="1213.43,28.783 1213.401,28.825 1196.573,53.938 1196.573,53.938 1213.229,29.084 1213.229,29.083 
		1217.593,53.938 1217.847,53.938 1213.484,29.098 1213.484,29.098 	"/>
	<polygon fill="#FFFFFF" points="1213.204,28.67 1213.108,28.751 1213.069,28.784 1183.079,53.938 1183.469,53.938 1212.704,29.417 
		1212.705,29.416 1196.272,53.938 1196.573,53.938 1213.401,28.825 1213.43,28.783 1213.557,28.593 1213.891,28.095 1213.384,28.52 
			"/>
	<polygon fill="#FFFFFF" points="1094.075,38.234 1094.274,38.696 1113.278,53.938 1113.679,53.938 1094.063,38.207 	"/>
	<polygon fill="#FFFFFF" points="1093.969,38.13 1093.963,38.125 1093.647,37.873 1093.804,38.235 	"/>
	<polygon fill="#FFFFFF" points="1069.195,53.938 1069.66,53.938 1075.506,50.208 1075.906,49.953 1093.903,38.468 1100.558,53.938 
		1100.83,53.938 1094.274,38.696 1094.274,38.696 1094.075,38.234 1094.063,38.207 1094.017,38.099 1093.969,38.13 1093.804,38.235 
		1076.112,49.524 1075.712,49.78 	"/>
</g>
</svg>
