<?xml version="1.0" encoding="utf-8"?>
<!-- Generator: Adobe Illustrator 16.0.0, SVG Export Plug-In . SVG Version: 6.00 Build 0)  -->
<!DOCTYPE svg PUBLIC "-//W3C//DTD SVG 1.1//EN" "http://www.w3.org/Graphics/SVG/1.1/DTD/svg11.dtd">
<svg version="1.1" id="Capa_1" xmlns="http://www.w3.org/2000/svg" xmlns:xlink="http://www.w3.org/1999/xlink" x="0px" y="0px"
	 width="158px" height="158px" viewBox="0 0 158 158" enable-background="new 0 0 158 158" xml:space="preserve">
<g>
	<path fill="none" stroke="#C4D459" stroke-miterlimit="10" d="M155.544,79.002c0,42.277-34.271,76.543-76.544,76.543
		c-42.274,0-76.545-34.266-76.545-76.543C2.456,36.728,36.727,2.456,79,2.456C121.274,2.456,155.544,36.728,155.544,79.002z"/>
	<g>
		<path fill="none" stroke="#C4D459" stroke-width="4" stroke-miterlimit="10" d="M19.016,31.561
			c3.624-4.622,7.775-8.82,12.355-12.501"/>
		<path fill="none" stroke="#C4D459" stroke-width="4" stroke-miterlimit="10" d="M31.481,138.846
			c-4.368-3.498-8.341-7.461-11.849-11.819"/>
		<path fill="none" stroke="#C4D459" stroke-width="4" stroke-miterlimit="10" d="M138.662,127.061
			c-3.576,4.394-7.632,8.383-12.086,11.887"/>
		<path fill="none" stroke="#C4D459" stroke-width="4" stroke-miterlimit="10" d="M130.335,22.177
			c2.934,2.673,5.658,5.574,8.146,8.671"/>
	</g>
	<g>
		<rect x="73.219" y="84.826" fill="#E6E48D" width="6.91" height="6.916"/>
		<path fill="#E6E48D" d="M47.542,101.124v6.898h-1.127c-1.934,0-3.453-1.514-3.453-3.445c0-1.936,1.519-3.453,3.453-3.453H47.542z"
			/>
		<polygon fill="#E6E48D" points="63.843,109.649 60.74,108.115 63.831,106.568 63.836,108.027 		"/>
		<path fill="#E6E48D" d="M88.824,108.897c0.006,0.744-0.653,1.415-1.623,1.415h-1.175l-0.006-2.133l-0.012-2.425h1.169
			c0.946,0,1.635,0.668,1.642,1.404L88.824,108.897z"/>
		<polygon fill="#E6E48D" points="115.039,59.233 115.039,98.722 105.802,98.722 105.802,96.465 110.417,96.465 110.417,94.064 
			105.802,94.064 105.802,91.809 108.092,91.809 108.092,89.409 105.802,89.409 105.802,87.159 110.417,87.159 110.417,84.759 
			105.802,84.759 105.802,82.502 108.092,82.502 108.092,80.102 105.802,80.102 105.802,77.848 110.417,77.848 110.417,75.445 
			105.802,75.445 105.802,73.197 108.092,73.197 108.092,70.788 105.802,70.788 105.802,68.546 110.417,68.546 110.417,66.14 
			105.802,66.14 105.802,63.89 108.092,63.89 108.092,61.489 105.802,61.489 105.802,59.233 		"/>
		<path fill="#E6E48D" d="M98.745,51.047v39.793c-0.993-0.766-2.108-1.432-3.453-1.432h-1.128V47.595h1.128
			C97.226,47.595,98.745,49.114,98.745,51.047z"/>
		<rect x="51.069" y="61.487" fill="#E6E48D" width="17.201" height="20.112"/>
		<path fill="#C4D459" d="M87.173,103.372h-2.377v-0.026l-19.779,0.074c-0.054,0.007-0.108,0.014-0.156,0.022
			c-0.027,0.014-0.054,0.019-0.082,0.027c-0.035,0.006-0.068,0.02-0.096,0.026h-0.034c-0.02,0.013-0.034,0.013-0.048,0.02
			c-0.02,0.014-0.034,0.022-0.054,0.027c-0.02,0.006-0.047,0.02-0.061,0.034c-0.027,0.007-0.041,0.019-0.062,0.027l-6.917,3.478
			c-0.591,0.299-0.829,1.02-0.53,1.608c0.115,0.239,0.305,0.423,0.543,0.538l6.998,3.46c0.258,0.122,0.544,0.155,0.822,0.082H84.83
			c0.095,0,0.184-0.007,0.272-0.033h2.099c2.168,0,4.036-1.678,4.023-3.827v-1.737C91.209,105.011,89.328,103.367,87.173,103.372z
			 M60.737,108.115l3.091-1.55l0.007,1.462l0.007,1.622L60.737,108.115z M66.228,105.811l17.379-0.059v0.007l0.006,1.148
			l-17.379-0.042L66.228,105.811z M66.248,110.352l-0.007-1.074v-0.007l17.38,0.045l0.006,1.036H66.248z M87.201,110.311h-1.175
			l-0.007-2.129l-0.014-2.423h1.168c0.951,0,1.639,0.666,1.645,1.4l0.008,1.737C88.832,109.637,88.172,110.311,87.201,110.311z
			 M85.978,61.487H61.546v2.404h4.613v6.944h2.406v-6.944h16.218v13.881h-6.91v-9.268h-2.399v9.268h-4.62v2.404h13.929v11.565
			h-2.256v-8.113c0-0.666-0.537-1.202-1.196-1.202h-9.315c-0.659,0-1.195,0.536-1.195,1.202v8.113h-2.255V75.606h-2.406v16.136
			H52.272V82.5h9.273v-2.396h-9.273V63.892h4.62v-2.404h-5.823c-0.659,0-1.196,0.535-1.196,1.203v30.249
			c0,0.666,0.537,1.203,1.196,1.203h34.909c0.666,0,1.203-0.537,1.203-1.203V62.69C87.181,62.022,86.644,61.487,85.978,61.487z
			 M80.128,91.742h-6.91v-6.916h6.91V91.742z M85.978,61.487H61.546v2.404h4.613v6.944h2.406v-6.944h16.218v13.881h-6.91v-9.268
			h-2.399v9.268h-4.62v2.404h13.929v11.565h-2.256v-8.113c0-0.666-0.537-1.202-1.196-1.202h-9.315c-0.659,0-1.195,0.536-1.195,1.202
			v8.113h-2.255V75.606h-2.406v16.136H52.272V82.5h9.273v-2.396h-9.273V63.892h4.62v-2.404h-5.823c-0.659,0-1.196,0.535-1.196,1.203
			v30.249c0,0.666,0.537,1.203,1.196,1.203h34.909c0.666,0,1.203-0.537,1.203-1.203V62.69
			C87.181,62.022,86.644,61.487,85.978,61.487z M80.128,91.742h-6.91v-6.916h6.91V91.742z M116.24,56.833h-11.639
			c-0.666,0-1.203,0.538-1.203,1.203v41.887c0,0.665,0.537,1.201,1.203,1.201h11.639c0.666,0,1.202-0.536,1.202-1.201V58.036
			C117.442,57.37,116.906,56.833,116.24,56.833z M115.037,98.72h-9.232v-2.257h4.613v-2.398h-4.613v-2.256h2.289V89.41h-2.289
			v-2.248h4.613v-2.403h-4.613V82.5h2.289v-2.396h-2.289v-2.257h4.613v-2.405h-4.613v-2.249h2.289v-2.405h-2.289v-2.242h4.613
			v-2.404h-4.613v-2.25h2.289v-2.404h-2.289v-2.256h9.232V98.72z M85.978,61.487H61.546v2.404h4.613v6.944h2.406v-6.944h16.218
			v13.881h-6.91v-9.268h-2.399v9.268h-4.62v2.404h13.929v11.565h-2.256v-8.113c0-0.666-0.537-1.202-1.196-1.202h-9.315
			c-0.659,0-1.195,0.536-1.195,1.202v8.113h-2.255V75.606h-2.406v16.136H52.272V82.5h9.273v-2.396h-9.273V63.892h4.62v-2.404h-5.823
			c-0.659,0-1.196,0.535-1.196,1.203v30.249c0,0.666,0.537,1.203,1.196,1.203h34.909c0.666,0,1.203-0.537,1.203-1.203V62.69
			C87.181,62.022,86.644,61.487,85.978,61.487z M80.128,91.742h-6.91v-6.916h6.91V91.742z M85.978,61.487H61.546v2.404h4.613v6.944
			h2.406v-6.944h16.218v13.881h-6.91v-9.268h-2.399v9.268h-4.62v2.404h13.929v11.565h-2.256v-8.113c0-0.666-0.537-1.202-1.196-1.202
			h-9.315c-0.659,0-1.195,0.536-1.195,1.202v8.113h-2.255V75.606h-2.406v16.136H52.272V82.5h9.273v-2.396h-9.273V63.892h4.62v-2.404
			h-5.823c-0.659,0-1.196,0.535-1.196,1.203v30.249c0,0.666,0.537,1.203,1.196,1.203h34.909c0.666,0,1.203-0.537,1.203-1.203V62.69
			C87.181,62.022,86.644,61.487,85.978,61.487z M80.128,91.742h-6.91v-6.916h6.91V91.742z M85.978,61.487H61.546v2.404h4.613v6.944
			h2.406v-6.944h16.218v13.881h-6.91v-9.268h-2.399v9.268h-4.62v2.404h13.929v11.565h-2.256v-8.113c0-0.666-0.537-1.202-1.196-1.202
			h-9.315c-0.659,0-1.195,0.536-1.195,1.202v8.113h-2.255V75.606h-2.406v16.136H52.272V82.5h9.273v-2.396h-9.273V63.892h4.62v-2.404
			h-5.823c-0.659,0-1.196,0.535-1.196,1.203v30.249c0,0.666,0.537,1.203,1.196,1.203h34.909c0.666,0,1.203-0.537,1.203-1.203V62.69
			C87.181,62.022,86.644,61.487,85.978,61.487z M80.128,91.742h-6.91v-6.916h6.91V91.742z M85.978,61.487H61.546v2.404h4.613v6.944
			h2.406v-6.944h16.218v13.881h-6.91v-9.268h-2.399v9.268h-4.62v2.404h13.929v11.565h-2.256v-8.113c0-0.666-0.537-1.202-1.196-1.202
			h-9.315c-0.659,0-1.195,0.536-1.195,1.202v8.113h-2.255V75.606h-2.406v16.136H52.272V82.5h9.273v-2.396h-9.273V63.892h4.62v-2.404
			h-5.823c-0.659,0-1.196,0.535-1.196,1.203v30.249c0,0.666,0.537,1.203,1.196,1.203h34.909c0.666,0,1.203-0.537,1.203-1.203V62.69
			C87.181,62.022,86.644,61.487,85.978,61.487z M80.128,91.742h-6.91v-6.916h6.91V91.742z M95.292,45.194h-3.533v9.314H46.415
			c-3.22,0-5.856,2.631-5.856,5.852v44.216c0,0.086,0.014,0.183,0.034,0.264c0.143,3.098,2.69,5.586,5.822,5.586h3.526v-9.303
			h45.351c3.221,0,5.85-2.635,5.85-5.856V51.051C101.142,47.831,98.513,45.194,95.292,45.194z M47.543,108.021h-1.128
			c-1.936,0-3.451-1.51-3.451-3.443c0-1.938,1.516-3.453,3.451-3.453h1.128V108.021z M95.292,98.72H46.415
			c-1.291,0-2.479,0.436-3.451,1.147V60.361c0-1.931,1.516-3.454,3.451-3.454h45.344v34.901h3.533c1.93,0,3.451,1.521,3.451,3.459
			C98.744,97.204,97.222,98.72,95.292,98.72z M98.744,90.838c-0.991-0.761-2.105-1.428-3.451-1.428h-1.127V47.593h1.127
			c1.93,0,3.451,1.521,3.451,3.458V90.838z M85.978,61.487H61.546v2.404h4.613v6.944h2.406v-6.944h16.218v13.881h-6.91v-9.268
			h-2.399v9.268h-4.62v2.404h13.929v11.565h-2.256v-8.113c0-0.666-0.537-1.202-1.196-1.202h-9.315c-0.659,0-1.195,0.536-1.195,1.202
			v8.113h-2.255V75.606h-2.406v16.136H52.272V82.5h9.273v-2.396h-9.273V63.892h4.62v-2.404h-5.823c-0.659,0-1.196,0.535-1.196,1.203
			v30.249c0,0.666,0.537,1.203,1.196,1.203h34.909c0.666,0,1.203-0.537,1.203-1.203V62.69
			C87.181,62.022,86.644,61.487,85.978,61.487z M80.128,91.742h-6.91v-6.916h6.91V91.742z M85.978,61.487H61.546v2.404h4.613v6.944
			h2.406v-6.944h16.218v13.881h-6.91v-9.268h-2.399v9.268h-4.62v2.404h13.929v11.565h-2.256v-8.113c0-0.666-0.537-1.202-1.196-1.202
			h-9.315c-0.659,0-1.195,0.536-1.195,1.202v8.113h-2.255V75.606h-2.406v16.136H52.272V82.5h9.273v-2.396h-9.273V63.892h4.62v-2.404
			h-5.823c-0.659,0-1.196,0.535-1.196,1.203v30.249c0,0.666,0.537,1.203,1.196,1.203h34.909c0.666,0,1.203-0.537,1.203-1.203V62.69
			C87.181,62.022,86.644,61.487,85.978,61.487z M80.128,91.742h-6.91v-6.916h6.91V91.742z M85.978,61.487H61.546v2.404h4.613v6.944
			h2.406v-6.944h16.218v13.881h-6.91v-9.268h-2.399v9.268h-4.62v2.404h13.929v11.565h-2.256v-8.113c0-0.666-0.537-1.202-1.196-1.202
			h-9.315c-0.659,0-1.195,0.536-1.195,1.202v8.113h-2.255V75.606h-2.406v16.136H52.272V82.5h9.273v-2.396h-9.273V63.892h4.62v-2.404
			h-5.823c-0.659,0-1.196,0.535-1.196,1.203v30.249c0,0.666,0.537,1.203,1.196,1.203h34.909c0.666,0,1.203-0.537,1.203-1.203V62.69
			C87.181,62.022,86.644,61.487,85.978,61.487z M80.128,91.742h-6.91v-6.916h6.91V91.742z M85.978,61.487H61.546v2.404h4.613v6.944
			h2.406v-6.944h16.218v13.881h-6.91v-9.268h-2.399v9.268h-4.62v2.404h13.929v11.565h-2.256v-8.113c0-0.666-0.537-1.202-1.196-1.202
			h-9.315c-0.659,0-1.195,0.536-1.195,1.202v8.113h-2.255V75.606h-2.406v16.136H52.272V82.5h9.273v-2.396h-9.273V63.892h4.62v-2.404
			h-5.823c-0.659,0-1.196,0.535-1.196,1.203v30.249c0,0.666,0.537,1.203,1.196,1.203h34.909c0.666,0,1.203-0.537,1.203-1.203V62.69
			C87.181,62.022,86.644,61.487,85.978,61.487z M80.128,91.742h-6.91v-6.916h6.91V91.742z M85.978,61.487H61.546v2.404h4.613v6.944
			h2.406v-6.944h16.218v13.881h-6.91v-9.268h-2.399v9.268h-4.62v2.404h13.929v11.565h-2.256v-8.113c0-0.666-0.537-1.202-1.196-1.202
			h-9.315c-0.659,0-1.195,0.536-1.195,1.202v8.113h-2.255V75.606h-2.406v16.136H52.272V82.5h9.273v-2.396h-9.273V63.892h4.62v-2.404
			h-5.823c-0.659,0-1.196,0.535-1.196,1.203v30.249c0,0.666,0.537,1.203,1.196,1.203h34.909c0.666,0,1.203-0.537,1.203-1.203V62.69
			C87.181,62.022,86.644,61.487,85.978,61.487z M80.128,91.742h-6.91v-6.916h6.91V91.742z"/>
	</g>
</g>
</svg>
